<?xml version="1.0" encoding="utf-8"?>
<!-- Generator: Adobe Illustrator 18.0.0, SVG Export Plug-In . SVG Version: 6.00 Build 0)  -->
<!DOCTYPE svg PUBLIC "-//W3C//DTD SVG 1.1//EN" "http://www.w3.org/Graphics/SVG/1.1/DTD/svg11.dtd">
<svg version="1.1" id="Layer_1" xmlns="http://www.w3.org/2000/svg" xmlns:xlink="http://www.w3.org/1999/xlink" x="0px" y="0px"
	 viewBox="0 0 128 128" enable-background="new 0 0 128 128" xml:space="preserve">
<path fill="#FFFFFF" d="M92.3,35.7c-15.6-15.6-40.9-15.6-56.6,0c-15.6,15.6-15.6,40.9,0,56.6s40.9,15.6,56.6,0
	C107.9,76.7,107.9,51.3,92.3,35.7z M83,83c-5.2,5.2-12.1,7.9-19,7.9c-6.9,0-13.8-2.6-19-7.9c-9.5-9.5-10.4-24.3-2.7-34.8h-4.8
	c-1,0-1.9-0.8-1.9-1.9s0.8-1.9,1.9-1.9h8.8c0.1,0,0.2,0,0.4,0c0.1,0,0.1,0,0.2,0c0.1,0,0.1,0,0.2,0.1c0.1,0,0.1,0.1,0.2,0.1
	c0,0,0.1,0,0.1,0.1c0.2,0.1,0.4,0.3,0.5,0.5c0,0,0.1,0.1,0.1,0.1c0,0.1,0.1,0.1,0.1,0.2c0,0.1,0,0.1,0.1,0.2c0,0.1,0,0.1,0,0.2
	c0,0.1,0,0.2,0,0.4v8.8c0,1-0.8,1.9-1.9,1.9s-1.9-0.8-1.9-1.9v-3.5c-5.6,8.9-4.6,20.9,3.2,28.7c9,9,23.7,9,32.7,0c9-9,9-23.7,0-32.7
	c-7.5-7.5-19-8.9-28.1-3.6c-0.9,0.5-2,0.2-2.6-0.7c-0.5-0.9-0.2-2,0.7-2.6c10.6-6.2,24-4.5,32.7,4.1C93.5,55.5,93.5,72.5,83,83z
	 M70,62.1h6.2c1,0,1.9,0.8,1.9,1.9c0,1-0.8,1.9-1.9,1.9H70c-0.8,2.5-3.2,4.4-6,4.4c-3.5,0-6.2-2.8-6.2-6.2c0-2.8,1.8-5.2,4.4-6v-9.3
	c0-1,0.8-1.9,1.9-1.9c1,0,1.9,0.8,1.9,1.9V58C67.8,58.6,69.4,60.2,70,62.1z"/>
</svg>
