<?xml version="1.0" encoding="utf-8"?>
<!-- Generator: Adobe Illustrator 18.0.0, SVG Export Plug-In . SVG Version: 6.00 Build 0)  -->
<!DOCTYPE svg PUBLIC "-//W3C//DTD SVG 1.1//EN" "http://www.w3.org/Graphics/SVG/1.1/DTD/svg11.dtd">
<svg version="1.1" id="Layer_1" xmlns="http://www.w3.org/2000/svg" xmlns:xlink="http://www.w3.org/1999/xlink" x="0px" y="0px"
	 viewBox="0 0 100 100" enable-background="new 0 0 100 100" xml:space="preserve">
<g>
	<g>
		<path fill="#FFFFFF" d="M66.4,11.1H33.2c-3.2,0-5.7,2.6-5.7,5.7v67.4c0,3.2,2.6,5.7,5.7,5.7h33.2c3.2,0,5.7-2.6,5.7-5.7V16.9
			C72.1,13.7,69.6,11.1,66.4,11.1z M42.1,15.3h15.4v1.7h0H42.1V15.3z M50.5,86c-2,0-3.6-1.6-3.6-3.6c0-2,1.6-3.6,3.6-3.6
			c2,0,3.6,1.6,3.6,3.6C54.1,84.4,52.5,86,50.5,86z M67.8,75h-36V20.8h36V75z"/>
	</g>
</g>
</svg>
