<?xml version="1.0" encoding="utf-8"?>
<!-- Generator: Adobe Illustrator 18.0.0, SVG Export Plug-In . SVG Version: 6.00 Build 0)  -->
<!DOCTYPE svg PUBLIC "-//W3C//DTD SVG 1.1//EN" "http://www.w3.org/Graphics/SVG/1.1/DTD/svg11.dtd">
<svg version="1.1" id="Layer_1" xmlns="http://www.w3.org/2000/svg" xmlns:xlink="http://www.w3.org/1999/xlink" x="0px" y="0px"
	 viewBox="0 0 100 100" enable-background="new 0 0 100 100" xml:space="preserve">
<g>
	<circle fill="#808285" stroke="#2C3A46" stroke-width="3" stroke-miterlimit="10" cx="50" cy="50" r="48"/>
	<path fill="#FFFFFF" stroke="#2C3A46" stroke-width="3" stroke-miterlimit="10" d="M20,87.5C28.2,94,38.6,98,50,98s21.8-4,30-10.5
		v-72H20V87.5z"/>
	<circle fill="#2C3A46" cx="65" cy="45.1" r="3.8"/>
	<circle fill="#2C3A46" cx="35" cy="45.1" r="3.8"/>
	
		<polyline fill="none" stroke="#2C3A46" stroke-width="3" stroke-linecap="round" stroke-linejoin="round" stroke-miterlimit="10" points="
		50,38 50,69.5 39.5,69.5 	"/>
	<path fill="none" stroke="#2C3A46" stroke-width="3" stroke-linecap="round" stroke-miterlimit="10" d="M41.9,88.2
		c-7.7,0-13.9-6.2-13.9-13.9"/>
	
		<rect x="12.5" y="30.5" fill="none" stroke="#2C3A46" stroke-width="3" stroke-linejoin="round" stroke-miterlimit="10" width="30" height="30"/>
	
		<rect x="57.5" y="30.5" fill="none" stroke="#2C3A46" stroke-width="3" stroke-linejoin="round" stroke-miterlimit="10" width="30" height="30"/>
	<line fill="none" stroke="#2C3A46" stroke-width="3" stroke-miterlimit="10" x1="42.5" y1="45.1" x2="57.5" y2="45.1"/>
	<path fill="#A7A9AC" stroke="#2C3A46" stroke-width="3" stroke-miterlimit="10" d="M3.9,36.6C9.1,37.5,14.5,38,20,38
		c23.9,0,45.8-8.8,62.6-23.2C74,6.8,62.6,2,50,2C28.1,2,9.7,16.6,3.9,36.6z"/>
</g>
</svg>
