<?xml version="1.0" encoding="utf-8"?>
<!-- Generator: Adobe Illustrator 18.0.0, SVG Export Plug-In . SVG Version: 6.00 Build 0)  -->
<!DOCTYPE svg PUBLIC "-//W3C//DTD SVG 1.1//EN" "http://www.w3.org/Graphics/SVG/1.1/DTD/svg11.dtd">
<svg version="1.1" id="Layer_1" xmlns="http://www.w3.org/2000/svg" xmlns:xlink="http://www.w3.org/1999/xlink" x="0px" y="0px"
	 viewBox="0 0 128 128" enable-background="new 0 0 128 128" xml:space="preserve">
<g>
	<path fill="#FFFFFF" d="M6.4,64c0,27.4,19.1,50.3,44.8,56.2c-4.4-24.8-5.5-52,4.6-55.6c3.7-1.3,9.5,0.1,12,0.5
		c2.5,0.4,10.7,2.3,9.9-1.8C75.4,47.7,74.9,24.1,75,7.5c-3.6-0.7-7.2-1.1-11-1.1C32.2,6.4,6.4,32.2,6.4,64z"/>
	<ellipse transform="matrix(0.9556 -0.2948 0.2948 0.9556 -9.8102 16.8821)" fill="#010101" cx="51.1" cy="41" rx="9.1" ry="6.9"/>
	<path fill="#152739" d="M26.2,82.5c-0.6-2.9-5.2-2.2-4.2,2.8c3.6,17.1,20,19.3,26.9,19.4c-0.3-3-0.6-5.9-0.7-8.8
		C28.4,97.2,26.2,82.5,26.2,82.5z"/>
	<path fill="#676767" d="M80,29h21l-6.6-13.8c-4.5-2.8-9.4-4.9-14.5-6.4C79.9,14.9,79.9,22,80,29z"/>
	<path fill="#152739" d="M58.9,69.4c3.7-1.4,11.3,0.9,13.8,1.4c2.5,0.4,10.7,1.7,9.9-2.8c-2.3-16.5-2.8-41.5-2.7-59.4
		c-1.6-0.5-3.2-0.8-4.9-1.2c-0.1,16.6,0.4,40.3,2.7,55.8c0.8,4.2-7.4,2.3-9.9,1.8c-2.5-0.4-8.2-1.8-12-0.5
		c-10.1,3.5-9,30.8-4.6,55.6c1.8,0.4,3.6,0.7,5.4,1C52.3,98.8,49.8,72.8,58.9,69.4z"/>
	<path fill="#152739" d="M64,0C28.7,0,0,28.7,0,64c0,35.3,28.7,64,64,64c35.3,0,64-28.7,64-64C128,28.7,99.3,0,64,0z M64,121.6
		C32.2,121.6,6.4,95.8,6.4,64C6.4,32.2,32.2,6.4,64,6.4c31.8,0,57.6,25.8,57.6,57.6C121.6,95.8,95.8,121.6,64,121.6z"/>
	<path fill="#152739" d="M95.6,20H79.9c0,2,0,4,0.1,5h9.5l-3.3,24.6l-5.3,0.5c0.1,1.4,0.2,2.7,0.3,4l10-1.4L95.6,20z"/>
	<path fill="#B4B4B4" d="M7.8,51.1l22,2.2L54.1,7.3C31.2,11.2,13,28.7,7.8,51.1z"/>
	<path fill="#B4B4B4" d="M70.2,33.8l4.9-10.4C75,17.8,75,12.3,75,7.5c-3.6-0.7-7.2-1.1-11-1.1c-2.9,0-5.7,0.2-8.5,0.6L46,28.7
		L70.2,33.8z"/>
	<path fill="#676767" d="M11,41.3l17,3.2l20.4-36C31.6,13.2,17.9,25.4,11,41.3z"/>
	<path fill="#676767" d="M63.5,30.1L75,9.8c0-0.8,0-1.5,0-2.3c-3.6-0.7-7.2-1.1-11-1.1c-4.8,0-9.5,0.6-14,1.7l-6.6,17.7L63.5,30.1z"
		/>
	<path fill="#152739" d="M31.8,59.5l5,2.1l29.3-3.8L69,34.1l6.4,0.6c-0.1-2.8-0.2-5.7-0.3-8.7h-5.2l1.2-9H33.9L33,35.8l-0.1,0
		l-20.8,3.4c-1.1,2.3-2.1,4.7-2.9,7.1l23.4-4.8L31.8,59.5z M38,22h26.2l-4.1,31.3L38,56V22z"/>
</g>
</svg>
