<?xml version="1.0" encoding="utf-8"?>
<!-- Generator: Adobe Illustrator 18.0.0, SVG Export Plug-In . SVG Version: 6.00 Build 0)  -->
<!DOCTYPE svg PUBLIC "-//W3C//DTD SVG 1.1//EN" "http://www.w3.org/Graphics/SVG/1.1/DTD/svg11.dtd">
<svg version="1.1" id="Layer_1" xmlns="http://www.w3.org/2000/svg" xmlns:xlink="http://www.w3.org/1999/xlink" x="0px" y="0px"
	 viewBox="0 0 256 256" enable-background="new 0 0 256 256" xml:space="preserve">
<circle fill="#2D3B47" cx="128" cy="128" r="128"/>
<path fill="#FFFFFF" d="M201.7,223V50.3c-42.9,32.3-93.6,49.7-147.4,50.5V223c21.3,16.5,46.7,25.3,73.7,25.3S180.4,239.5,201.7,223z
	"/>
<circle fill="#2D3B47" cx="166.8" cy="115.4" r="9.7"/>
<circle fill="#2D3B47" cx="89.2" cy="115.4" r="9.7"/>
<path fill="#2D3B47" d="M107.2,230.6c-21.9,0-39.8-17.8-39.8-39.8c0-2.1,1.7-3.9,3.9-3.9c2.1,0,3.9,1.7,3.9,3.9
	c0,17.6,14.4,32,32,32c2.1,0,3.9,1.7,3.9,3.9S109.3,230.6,107.2,230.6z"/>
<g>
	<rect x="112.5" y="111.5" fill="#2D3B47" width="31" height="7.8"/>
</g>
<g>
	<path fill="#2D3B47" d="M201.7,159h-54.3c-2.1,0-3.9-1.7-3.9-3.9V77.6c0-2.1,1.7-3.9,3.9-3.9h54.3v7.8h-50.4v69.8h50.4V159z"/>
</g>
<g>
	<path fill="#FFFFFF" d="M225,159h-23.3v-7.8h19.4V81.5h-19.4v-7.8H225c2.1,0,3.9,1.7,3.9,3.9v77.6C228.8,157.3,227.1,159,225,159z"
		/>
</g>
<g>
	<path fill="#FFFFFF" d="M54.3,159H31c-2.1,0-3.9-1.7-3.9-3.9V77.6c0-2.1,1.7-3.9,3.9-3.9h77.6c2.1,0,3.9,1.7,3.9,3.9v15.6l-7.8,1.8
		V81.5H34.9v69.8h19.4V159z"/>
</g>
<g>
	<path fill="#2D3B47" d="M108.6,159H54.3v-7.8h50.4V95l7.8-1.8v61.9C112.5,157.3,110.8,159,108.6,159z"/>
</g>
<path fill="#2D3B47" d="M124,163h-23.2c-2.1,0-3.9,1.4-3.9,3.5c0,2.1,1.7,3.5,3.9,3.5H128c2.1,0,4-1.1,4-3.2V87.5l-8,2.5V163z"/>
</svg>
