<?xml version="1.0" encoding="utf-8"?>
<!-- Generator: Adobe Illustrator 18.0.0, SVG Export Plug-In . SVG Version: 6.00 Build 0)  -->
<!DOCTYPE svg PUBLIC "-//W3C//DTD SVG 1.1//EN" "http://www.w3.org/Graphics/SVG/1.1/DTD/svg11.dtd">
<svg version="1.1" id="Layer_1" xmlns="http://www.w3.org/2000/svg" xmlns:xlink="http://www.w3.org/1999/xlink" x="0px" y="0px"
	 viewBox="0 0 128 128" enable-background="new 0 0 128 128" xml:space="preserve">
<path fill="#EFF8FE" d="M34,96.3c-2.5,0-4.6-2.1-4.6-4.6V73.2c0-0.6-0.2-1.2-0.7-1.6L21.1,64l7.6-7.6c0.4-0.4,0.7-1,0.7-1.6V36.3
	c0-2.5,2.1-4.6,4.6-4.6c1.3,0,2.3-1,2.3-2.3c0-1.3-1-2.3-2.3-2.3c-5.1,0-9.2,4.1-9.2,9.2v17.5l-8.6,8.6c-0.9,0.9-0.9,2.4,0,3.3
	l8.6,8.6v17.5c0,5.1,4.1,9.2,9.2,9.2c1.3,0,2.3-1,2.3-2.3C36.3,97.4,35.3,96.3,34,96.3z"/>
<path fill="#EFF8FE" d="M111.8,62.4l-8.6-8.6V36.3c0-5.1-4.1-9.2-9.2-9.2c-1.3,0-2.3,1-2.3,2.3c0,1.3,1,2.3,2.3,2.3
	c2.5,0,4.6,2.1,4.6,4.6v18.5c0,0.6,0.2,1.2,0.7,1.6l7.6,7.6l-7.6,7.6c-0.4,0.4-0.7,1-0.7,1.6v18.5c0,2.5-2.1,4.6-4.6,4.6
	c-1.3,0-2.3,1-2.3,2.3c0,1.3,1,2.3,2.3,2.3c5.1,0,9.2-4.1,9.2-9.2V74.2l8.6-8.6C112.7,64.7,112.7,63.3,111.8,62.4z"/>
<g>
	<g>
		<g>
			<path fill="#FFFFFF" d="M77.9,46.8c0,0.2,0,0.4-0.1,0.5c0,0.1-0.1,0.2-0.1,0.2c-0.1,0.4-0.4,0.8-0.6,1l-8.3,8.3
				c-0.5,0.5-1.2,0.7-1.8,0.7c-0.7,0-1.4-0.2-1.8-0.7c-1-1-1-2.6,0-3.7l3.8-3.8H55.9c-7.9,0-14.5,6.5-14.5,14.5
				c0,3.9,1.5,7.5,4.2,10.2c1,1,1,2.6,0,3.7c-0.5,0.5-1.2,0.7-1.8,0.7s-1.4-0.2-1.8-0.7c-3.7-3.7-5.7-8.6-5.7-13.9
				c0-10.8,8.8-19.6,19.6-19.6h13.1l-3.8-3.8c-1-1-1-2.6,0-3.7c1-1,2.6-1,3.7,0l8.3,8.3c0.3,0.3,0.5,0.7,0.6,1
				c0,0.1,0.1,0.2,0.1,0.2C77.9,46.5,77.9,46.7,77.9,46.8z"/>
		</g>
	</g>
	<g>
		<g>
			<path fill="#FFFFFF" d="M91.7,64.1c0,10.8-8.8,19.6-19.6,19.6H58.9l3.8,3.8c1,1,1,2.6,0,3.7c-0.5,0.5-1.2,0.7-1.8,0.7
				c-0.7,0-1.3-0.2-1.8-0.7l-8.2-8.3c-0.3-0.3-0.5-0.7-0.6-1c0-0.1-0.1-0.2-0.1-0.2c-0.1-0.2-0.1-0.3-0.1-0.5c0-0.2,0-0.4,0.1-0.5
				c0-0.1,0.1-0.2,0.1-0.2c0.1-0.4,0.4-0.8,0.6-1l8.3-8.3c1-1,2.6-1,3.7,0c1,1,1,2.6,0,3.7L59,78.6h13.1c7.9,0,14.5-6.5,14.5-14.5
				c0-3.9-1.5-7.5-4.2-10.2c-1-1-1-2.6,0-3.7c1-1,2.6-1,3.7,0C89.7,53.9,91.7,58.8,91.7,64.1z"/>
		</g>
	</g>
</g>
</svg>
