<?xml version="1.0" encoding="utf-8"?>
<!-- Generator: Adobe Illustrator 18.0.0, SVG Export Plug-In . SVG Version: 6.00 Build 0)  -->
<!DOCTYPE svg PUBLIC "-//W3C//DTD SVG 1.1//EN" "http://www.w3.org/Graphics/SVG/1.1/DTD/svg11.dtd">
<svg version="1.1" id="Layer_1" xmlns="http://www.w3.org/2000/svg" xmlns:xlink="http://www.w3.org/1999/xlink" x="0px" y="0px"
	 viewBox="0 0 128 128" enable-background="new 0 0 128 128" xml:space="preserve">
<path fill="#FFFFFF" d="M64,24c-22.1,0-40,17.9-40,40c0,22.1,17.9,40,40,40s40-17.9,40-40C104,41.9,86.1,24,64,24z M58.2,76.5
	c0.7,0.7,0.7,1.9,0,2.7c-0.4,0.4-0.8,0.5-1.3,0.5s-1-0.2-1.3-0.5L41.7,65.3c0,0,0,0,0,0c-0.7-0.7-0.7-1.9,0-2.7l13.9-13.9
	c0.7-0.7,1.9-0.7,2.7,0c0.7,0.7,0.7,1.9,0,2.7L45.7,64L58.2,76.5z M86.7,64.7c-0.1,0.2-0.2,0.4-0.4,0.6L72.5,79.2
	c-0.4,0.4-0.8,0.5-1.3,0.5s-1-0.2-1.3-0.5c-0.7-0.7-0.7-1.9,0-2.7L82.3,64L69.8,51.5c-0.7-0.7-0.7-1.9,0-2.7c0.7-0.7,1.9-0.7,2.7,0
	l13.9,13.9c0,0,0,0,0,0c0.4,0.4,0.5,0.8,0.5,1.3C86.9,64.2,86.8,64.5,86.7,64.7z"/>
</svg>
