<?xml version="1.0" encoding="utf-8"?>
<!-- Generator: Adobe Illustrator 18.0.0, SVG Export Plug-In . SVG Version: 6.00 Build 0)  -->
<!DOCTYPE svg PUBLIC "-//W3C//DTD SVG 1.1//EN" "http://www.w3.org/Graphics/SVG/1.1/DTD/svg11.dtd">
<svg version="1.1" id="Layer_1" xmlns="http://www.w3.org/2000/svg" xmlns:xlink="http://www.w3.org/1999/xlink" x="0px" y="0px"
	 viewBox="0 0 128 128" enable-background="new 0 0 128 128" xml:space="preserve">
<g>
	<path fill="#FFFFFF" d="M80.6,69c0-6.4-5.2-11.7-11.7-11.7S57.3,62.5,57.3,69S62.5,80.6,69,80.6c1.7,0,3.4-0.4,4.9-1.1
		c0.2-0.1,0.5-0.2,0.8-0.2c0.1,0,0.3,0,0.4,0l5.5,1.2l-1.2-5.4c-0.1-0.4,0-0.9,0.1-1.2C80.3,72.5,80.6,70.8,80.6,69z M74.2,75.8
		H63.7c-0.9,0-1.6-0.7-1.6-1.6s0.7-1.6,1.6-1.6h10.5c0.9,0,1.6,0.7,1.6,1.6S75.1,75.8,74.2,75.8z M74.2,70.8H63.7
		c-0.9,0-1.6-0.7-1.6-1.6s0.7-1.6,1.6-1.6h10.5c0.9,0,1.6,0.7,1.6,1.6S75.1,70.8,74.2,70.8z M74.2,65.8H63.7c-0.9,0-1.6-0.7-1.6-1.6
		s0.7-1.6,1.6-1.6h10.5c0.9,0,1.6,0.7,1.6,1.6S75.1,65.8,74.2,65.8z"/>
	<path fill="#FFFFFF" d="M64,24c-22.1,0-40,17.9-40,40c0,22.1,17.9,40,40,40s40-17.9,40-40C104,41.9,86.1,24,64,24z M84.4,84.5
		C84,84.8,83.5,85,83,85c-0.1,0-0.3,0-0.4,0l-7.8-1.7C73,84,71,84.4,69,84.4c-6.3,0-11.8-3.8-14.2-9.3c-0.1,0-0.2,0-0.3,0
		c-8.5,0-15.4-6.9-15.4-15.4s6.9-15.4,15.4-15.4c6.2,0,11.7,3.7,14.2,9.3c0.1,0,0.2,0,0.3,0c8.5,0,15.4,6.9,15.4,15.4
		c0,2.1-0.4,4.2-1.3,6.1l1.7,7.6C85,83.3,84.8,84,84.4,84.5z"/>
</g>
</svg>
