<?xml version="1.0" encoding="utf-8"?>
<!-- Generator: Adobe Illustrator 18.0.0, SVG Export Plug-In . SVG Version: 6.00 Build 0)  -->
<!DOCTYPE svg PUBLIC "-//W3C//DTD SVG 1.1//EN" "http://www.w3.org/Graphics/SVG/1.1/DTD/svg11.dtd">
<svg version="1.1" id="Layer_1" xmlns="http://www.w3.org/2000/svg" xmlns:xlink="http://www.w3.org/1999/xlink" x="0px" y="0px"
	 width="300px" height="440px" viewBox="0 0 300 440" style="enable-background:new 0 0 300 440;" xml:space="preserve">
<style type="text/css">
	.st0{fill:#EE3445;}
	.st1{fill:#2C0D3C;}
	.st2{fill:none;stroke:#D42027;stroke-width:2;stroke-miterlimit:10;}
	.st3{fill:#D42027;}
	.st4{fill:#FFFFFF;}
	.st5{fill:#C1C1C6;}
	.st6{fill:#F16660;}
	.st7{fill:none;stroke:#FFF200;stroke-width:4;stroke-linecap:round;stroke-miterlimit:10;}
	.st8{fill:#2D3B47;}
	.st9{fill:#B5E3EF;}
	.st10{fill:#FFC60B;}
	.st11{fill:#44B649;}
	.st12{fill:#FFF200;}
	.st13{fill:#1D4C9F;}
	.st14{fill:none;stroke:#44B649;stroke-width:4;stroke-linecap:round;stroke-miterlimit:10;}
	.st15{fill:none;stroke:#1D4C9F;stroke-width:4;stroke-linecap:round;stroke-miterlimit:10;}
	.st16{fill:#39C6F4;}
	.st17{font-family:'AeroviasBrasilNF';}
	.st18{font-size:16;}

	.desWheelAnimation {
		animation-name:epDesWheelAnimation;
		animation-duration: 4s;
		animation-iteration-count:infinite; 
		animation-direction:reverse;
		animation-timing-function:linear;
	}

	.desWheel1Position {
		transform-origin: 115.8px 307px;
	}


	.desWheel2Position {
		transform-origin: 115.8px 369px;
	}

	@keyframes epDesWheelAnimation {
		0% {
			transform: rotate(0deg); 
		}
		40% {
			transform: rotate(180deg); 
		}
		50% {
			transform: rotate(180deg); 
		}
		55% {
			transform: rotate(140deg); 
		}
		100% {
			transform: rotate(360deg); 
		}
	}

	.desMeterAnimation {
		animation-name:epDesMeterAnimation;
		animation-iteration-count:infinite; 
		animation-timing-function:linear;
		animation-direction:alternate-reverse;
	}

	.desMeter1Position {
		animation-duration: 1s;
		transform-origin: 175.8px 370.3px;
	}

	.desMeter2Position {
		animation-duration: 0.75s;
		transform-origin: 239.8px 370.3px;
	}

	@keyframes epDesMeterAnimation {
		0% {
			transform: rotate(0deg); 
		}
		40% {
			transform: rotate(30deg);
		}
		60% {
			transform: rotate(0deg);
		}
		100% {
			transform: rotate(70deg); 
		}
	}

</style>
<path class="st0" d="M270.8,184h-70c-5.5,0-10-4.5-10-10v-42c0-5.5,4.5-10,10-10h70c5.5,0,10,4.5,10,10v42
	C280.8,179.5,276.4,184,270.8,184z"/>
<rect x="74.8" y="277" class="st1" width="60" height="122"/>
<line class="st2" x1="96.8" y1="312" x2="96.8" y2="366"/>
<path class="st3" d="M78.9,349.6v-20h10c2.8,0,5,2.2,5,5v10c0,2.8-2.2,5-5,5H78.9z"/>
<circle class="st3" cx="85.9" cy="321.1" r="5"/>
<circle class="st3" cx="85.9" cy="358.1" r="5"/>
<rect x="8.1" y="389.4" class="st4" width="36" height="22"/>
<circle class="st5" cx="18.7" cy="400.4" r="6.5"/>
<circle class="st6" cx="33.7" cy="400.4" r="6.5"/>
<rect x="16.4" y="397.1" class="st1" width="5" height="2"/>
<rect x="16.4" y="401.6" class="st1" width="5" height="2"/>
<path class="st7" d="M33.7,400.1c0,0,2.6,20.1,15.7,20.2c13.3,0,17.6-15.4,23.6-53"/>
<g class="desWheelAnimation desWheel1Position">
	<circle class="st4" cx="115.8" cy="307" r="25"/>
	<circle class="st8" cx="115.8" cy="307" r="8.3"/>
	<path class="st8" d="M117.9,292.6v-6.4h-4.2v6.4c0.7-0.1,1.4-0.2,2.1-0.2S117.2,292.5,117.9,292.6z"/>
	<path class="st8" d="M96.7,315.6l2.1,3.6l5.6-3.2c-0.9-1.1-1.6-2.3-2.1-3.6L96.7,315.6z"/>
	<path class="st8" d="M127.3,316l5.6,3.2l2.1-3.6l-5.5-3.2C128.8,313.7,128.1,314.9,127.3,316z"/>
</g>
<g class="desWheelAnimation desWheel2Position">
	<circle class="st4" cx="115.8" cy="369" r="25"/>
	<circle class="st8" cx="115.8" cy="369" r="8.3"/>
	<path class="st8" d="M117.9,354.6v-6.4h-4.2v6.4c0.7-0.1,1.4-0.2,2.1-0.2S117.2,354.5,117.9,354.6z"/>
	<path class="st8" d="M96.7,377.6l2.1,3.6l5.6-3.2c-0.9-1.1-1.6-2.3-2.1-3.6L96.7,377.6z"/>
	<path class="st8" d="M127.3,378l5.6,3.2l2.1-3.6l-5.5-3.2C128.8,375.7,128.1,376.9,127.3,378z"/>
</g>
<path class="st0" d="M64.8,265v145h220V265H64.8z M134.8,399h-60V277h60V399z"/>
<rect x="104.8" y="173" class="st0" width="70" height="20"/>
<path class="st0" d="M254.8,198h-160c-16.6,0-30,13.4-30,30v30h220v-30C284.8,211.4,271.4,198,254.8,198z"/>
<rect x="71.3" y="258" class="st3" width="208.7" height="7"/>
<g>
	<polygon class="st0" points="80.8,440 64.8,440 64.8,410 87.8,410 	"/>
	<polygon class="st0" points="268.8,440 284.8,440 284.8,410 261.8,410 	"/>
</g>
<rect x="145.8" y="340" class="st1" width="60" height="50"/>
<circle class="st0" cx="175.8" cy="380" r="5"/>
<path class="st4" d="M186.7,370h-21.8c-5,0-9.1-4.1-9.1-9.1v-1.8c0-5,4.1-9.1,9.1-9.1h21.8c5,0,9.1,4.1,9.1,9.1v1.8
	C195.8,365.9,191.7,370,186.7,370z"/>
<path class="st9" d="M175.8,355c-7.8,0-14.8,3.6-19.4,9.2c1.3,3.4,4.6,5.8,8.5,5.8h21.8c3.8,0,7.1-2.4,8.5-5.8
	C190.6,358.6,183.6,355,175.8,355z"/>
<g class="desMeterAnimation desMeter1Position">
	<circle class="st8" cx="175.8" cy="370.3" r="2.5"/>
	<rect x="174.9" y="360.8" class="st8" width="2" height="9"/>
	<polygon class="st8" points="172.9,360.8 175.9,357.8 178.9,360.8 	"/>
</g>
<polygon class="st3" points="205.8,390 202.8,387 202.8,343 205.8,340 "/>
<polygon class="st6" points="202.8,343 148.8,343 145.8,340 205.8,340 "/>
<polygon class="st10" points="148.8,387 145.8,390 145.8,340 148.8,343 "/>
<polygon class="st3" points="205.8,390 145.8,390 148.8,387 202.8,387 "/>
<rect x="209.8" y="340" class="st1" width="60" height="50"/>
<circle class="st0" cx="239.8" cy="380" r="5"/>
<path class="st4" d="M250.7,370h-21.8c-5,0-9.1-4.1-9.1-9.1v-1.8c0-5,4.1-9.1,9.1-9.1h21.8c5,0,9.1,4.1,9.1,9.1v1.8
	C259.8,365.9,255.7,370,250.7,370z"/>
<path class="st9" d="M239.8,355c-7.8,0-14.8,3.6-19.4,9.2c1.3,3.4,4.6,5.8,8.5,5.8h21.8c3.8,0,7.1-2.4,8.5-5.8
	C254.6,358.6,247.6,355,239.8,355z"/>
<polygon class="st3" points="269.8,390 266.8,387 266.8,343 269.8,340 "/>
<polygon class="st6" points="266.8,343 212.8,343 209.8,340 269.8,340 "/>
<polygon class="st10" points="212.8,387 209.8,390 209.8,340 212.8,343 "/>
<polygon class="st3" points="269.8,390 209.8,390 212.8,387 266.8,387 "/>
<rect x="145.8" y="286" class="st0" width="124" height="50"/>
<circle class="st1" cx="187.8" cy="303.5" r="7"/>
<circle class="st11" cx="187.8" cy="303.5" r="4.5"/>
<circle class="st1" cx="187.8" cy="320.5" r="7"/>
<circle class="st12" cx="187.8" cy="320.5" r="4.5"/>
<circle class="st1" cx="207.8" cy="303.5" r="7"/>
<circle class="st13" cx="207.8" cy="303.5" r="4.5"/>
<circle class="st1" cx="207.8" cy="320.5" r="7"/>
<circle class="st0" cx="207.8" cy="320.5" r="4.5"/>
<circle class="st1" cx="224.8" cy="303.5" r="4.5"/>
<circle class="st1" cx="224.8" cy="320.5" r="4.5"/>
<circle class="st1" cx="237.8" cy="303.5" r="4.5"/>
<circle class="st1" cx="237.8" cy="320.5" r="4.5"/>
<circle class="st1" cx="250.8" cy="303.5" r="4.5"/>
<circle class="st1" cx="250.8" cy="320.5" r="4.5"/>
<path class="st7" d="M224.8,303.5c0,0-1.6,15.9,13,17"/>
<path class="st14" d="M237.8,303.5c0,0,0.7,12.3-13.1,17.1"/>
<path class="st15" d="M250.8,303.5c0,0-7.2,9.3,0,17.1"/>
<g class="desMeterAnimation desMeter2Position">
	<circle class="st8" cx="239.8" cy="370.3" r="2.5"/>
	<rect x="238.9" y="360.8" class="st8" width="2" height="9"/>
	<polygon class="st8" points="236.9,360.8 239.9,357.8 242.9,360.8 	"/>
</g>
<g>
	<path class="st4" d="M75.9,250.1c-0.7,0-1.3,0.4-1.5-0.6c-0.1-0.7,0.1-1.4,0.2-2c1.4-0.4,2.7-1.2,3.6-2.4c0.6-0.8,1.4-2.7,0.1-3.3
		c-0.9-0.4-2.2,0-2.8,0.6c-1.3,1.2-2.1,2.9-2.5,4.5l-0.5,0.1c-0.5,0-0.1,0.7,0.2,0.7h0.1c-0.2,1.2-0.3,3,1.1,3.5
		c0.6,0.2,1.2,0.1,1.7-0.2C75.9,251,76.6,250.1,75.9,250.1z M76,243.7c0.4-0.8,1.3-1,1.1,0.2c-0.2,1.2-1.2,2.1-2.2,2.6
		C75.2,245.5,75.6,244.5,76,243.7C76.4,243.1,75.6,244.5,76,243.7z"/>
	<path class="st4" d="M90.6,249.7c-0.5,0-0.9,0.4-1.3-0.1c-0.2-0.3-0.1-0.8,0-1.1c0.3-1,0.9-1.9,1.2-2.9c0.3-0.7,0.9-2.4,0.1-3
		c-0.7-0.5-1.5,0.5-1.8,1c-0.5,1.7-0.9,3.4-0.9,5.1v0.2c-0.3,0.4-3.1,2.4-3.2,0.9c-0.1-0.6,0.9-1.1,1.3-1.3c0.6-0.2,1.4,0,1.6-0.8
		c0.2-0.9-1.6-0.6-2-0.4c-1,0.5-2.4,1.4-2.6,2.6c-0.5,0-1.3,0.3-1.2-0.6c0.1-0.3,0.8-1.6,0.1-1.6c-0.5,0-3.5,2.9-3.9,1.5
		c-0.3-0.8,0.9-2.4-0.7-2.3c-0.5,0-2.3,0.6-1.8,1.5c0.1,0.3,1.1,0,1.4,0c0.4,0-0.2,1.8-0.1,2.2c0.4,1.9,3-0.4,3.7-0.4
		c0,0,0.1,0.5,0.1,0.6c0.1,0.3,0.2,0.4,0.5,0.5c0.7,0.2,1.6-0.1,2-0.6c0.8,1.9,3.9,0.6,5-0.2c0.3,0.7,1.1,1.1,1.8,0.8
		C90.2,251.1,91.5,249.7,90.6,249.7z"/>
	<path class="st4" d="M96.9,249.8c-0.5-0.4,0.2-1.2,0.2-1.7c0.2-0.9-0.9-0.3-1.1-0.1c-0.4,0.3-3.3,2.5-3.1,0.6
		c0.1-0.9,0.5-2-0.9-1.8c-0.5,0.1-2.1,0.7-1.7,1.4c0.1,0.3,1.1,0,1.4,0c0.4,0-0.2,1.8-0.1,2.2c0.4,1.9,3-0.4,3.7-0.4
		c-0.1,0,0.2,0.9,0.4,1c0.5,0.3,1.2,0.1,1.7-0.1c0.2-0.1,1-0.7,0.7-1C97.9,249.6,97.2,250.1,96.9,249.8z"/>
	<path class="st4" d="M109.2,248.1c0-0.5-1.4-0.5-1.7-0.2c-0.4,0.6-1.3,1.3-2.1,1.4c-0.9,0.1-0.3-1.3-0.2-1.8c0.1-1.3-2.3-0.5-2.8,0
		c-0.9-1.4-4.1,0-4.7,1.2c-0.3,0.5,0.3,0.8,0.7,0.6c0.4-0.2,0.7-0.5,1.1-0.7c0.6-0.4,2.3-0.7,1.9,0.7c-0.1,0.4-0.6,0.7-1,0.7
		c-0.5,0-0.7-0.5-1.2-0.6c-0.9,0-1.2,1.5-0.3,1.8c1.8,0.6,3.9-0.7,3.8-2.7c0.3-0.1,0.6-0.2,0.9-0.2c0.6,0.3-0.6,1.9-0.1,2.4
		c0.6,0.8,3-0.1,3.4-0.7c-0.1,0-1.2,4.3-1.1,4.8c0.2,0.7,1.2,0.4,1.6,0.2c0.7-0.4,0.1-1,0.2-1.7C108,251.5,109.2,249.8,109.2,248.1z
		"/>
</g>
<polygon class="st3" points="87.8,410 64.8,410 64.8,417.2 86.2,417.2 "/>
<polygon class="st3" points="284.8,410 261.8,410 263.5,417.2 284.8,417.2 "/>
<polygon class="st6" points="266.8,289 148.8,289 145.8,286 269.8,286 "/>
<polygon class="st3" points="269.8,336 145.8,336 148.8,333 266.8,333 "/>
<polygon class="st10" points="148.8,333 145.8,336 145.8,286 148.8,289 "/>
<polygon class="st3" points="269.8,336 266.8,333 266.8,289 269.8,286 "/>
<path class="st4" d="M69.8,211.5h33.5c0.8,0,1.5-0.7,1.5-1.5s-0.7-1.5-1.5-1.5H72C71.2,209.5,70.5,210.5,69.8,211.5z"/>
<path class="st4" d="M66.7,217.5h36.5c0.8,0,1.5-0.7,1.5-1.5s-0.7-1.5-1.5-1.5H68C67.6,215.5,67.1,216.5,66.7,217.5z"/>
<path class="st4" d="M65.2,223.5h38.1c0.8,0,1.5-0.7,1.5-1.5s-0.7-1.5-1.5-1.5H65.8C65.5,221.5,65.3,222.5,65.2,223.5z"/>
<rect x="112.3" y="193" class="st3" width="55" height="5"/>
<rect x="155.8" y="296" class="st1" width="18" height="30"/>
<rect x="158.3" y="299" class="st6" width="13" height="24"/>
<rect x="158.3" y="299" class="st12" width="13" height="12"/>
<g>
	<path class="st1" d="M159.6,329.3c0-2.4,3.7-2.5,3.7,0C163.4,331.8,159.6,331.8,159.6,329.3z M160.8,329.3c0,1.1,1.4,1.4,1.5,0.2
		C162.4,328.2,160.8,327.9,160.8,329.3z"/>
	<path class="st1" d="M164,327.5h2.7v0.8h-1.6v0.6h1.4v0.7h-1.4v1.5H164V327.5z"/>
	<path class="st1" d="M167.3,327.5h2.7v0.8h-1.6v0.6h1.4v0.7h-1.4v1.5h-1.1L167.3,327.5L167.3,327.5z"/>
</g>
<g>
	<path class="st1" d="M161.1,293c0-2.4,3.7-2.5,3.7,0C164.8,295.4,161.1,295.4,161.1,293z M162.2,293c0,1.1,1.4,1.4,1.5,0.2
		C163.8,291.8,162.2,291.5,162.2,293z"/>
	<path class="st1" d="M165.4,291.2h1l1.3,2v-2h1v3.6h-1l-1.3-2v2h-1V291.2z"/>
</g>
<polygon class="st10" points="132.8,397 134.8,399 134.8,277 132.8,279 "/>
<polygon class="st10" points="74.8,399 134.8,399 132.8,397 76.8,397 "/>
<polygon class="st3" points="74.8,399 76.8,397 76.8,279 74.8,277 "/>
<polygon class="st3" points="76.8,279 132.8,279 134.8,277 74.8,277 "/>
<path class="st16" d="M255.4,133.3c5.9,5.9,5.9,33.6,0,39.5c-5.9,5.9-49.3,5.9-55.2,0s-5.9-33.6,0-39.5
	C206.1,127.4,249.6,127.4,255.4,133.3z"/>
<path class="st1" d="M253.7,134.5c5.5,5.5,5.5,31.5,0,37c-5.5,5.5-46.3,5.5-51.8,0s-5.5-31.5,0-37C207.5,129,248.2,129,253.7,134.5z
	"/>
<rect x="231.3" y="184" class="st3" width="9" height="9"/>
<rect x="225.8" y="193" class="st0" width="20" height="5"/>
<text transform="matrix(0.9888 0 0 1 210.2012 156.834)" class="st12 st17 st18">0101</text>
<circle class="st1" cx="269" cy="145" r="7"/>
<circle class="st16" cx="269" cy="145" r="4.5"/>
<circle class="st1" cx="269" cy="162" r="7"/>
<circle class="st11" cx="269" cy="162" r="4.5"/>
</svg>
