<?xml version="1.0" encoding="utf-8"?>
<!-- Generator: Adobe Illustrator 18.0.0, SVG Export Plug-In . SVG Version: 6.00 Build 0)  -->
<!DOCTYPE svg PUBLIC "-//W3C//DTD SVG 1.1//EN" "http://www.w3.org/Graphics/SVG/1.1/DTD/svg11.dtd">
<svg version="1.1" id="Layer_1" xmlns="http://www.w3.org/2000/svg" xmlns:xlink="http://www.w3.org/1999/xlink" x="0px" y="0px"
	 width="300px" height="440px" viewBox="0 0 300 440" style="enable-background:new 0 0 300 440;" xml:space="preserve">
<style type="text/css">
	.st0{fill:#FFFFFF;}
	.st1{fill:#B5E3EF;}
	.st2{fill:#6E717A;}
	.st3{fill:#2C0D3C;}
	.st4{fill:none;stroke:#FFF200;stroke-width:4;stroke-linecap:round;stroke-miterlimit:10;}
	.st5{fill:#39C6F4;}
	.st6{fill:#EE3445;}
	.st7{fill:#F0662F;}
	.st8{fill:#D42027;}
	.st9{fill:#B2D235;}
	.st10{fill:#F16660;}
	.st11{fill:#FFC60B;}
	.st12{fill:none;stroke:#2C0D3C;stroke-miterlimit:10;}
	.st13{fill:#C1C1C6;}
	.st14{fill:#2D3B47;}
	.st15{fill:none;stroke:#2C0D3C;stroke-width:3;stroke-miterlimit:10;}
	.st16{fill:#44B649;}
	.st17{fill:#FFF200;}
	.st18{fill:#77469B;}
	.st19{font-family:'AeroviasBrasilNF';}
	.st20{font-size:16;}
	.st21{fill:#B6E2F3;}

	.devLightsAnimation1 {
		animation-name:epDevLightsAnimation1;
		animation-duration: 2s;
		animation-iteration-count:infinite; 
		animation-direction: alternate-reverse; 
		animation-timing-function:ease-in;
	}

	@keyframes epDevLightsAnimation1 {
		
		0% {
    		fill: #44B649;	
  		}

		50% {
			fill: #44B649;
		}

		55%{
			fill: #EE3445;
		}

  		100% {
		  fill: #EE3445;
  		}
	}

	.devLightsAnimation2 {
		animation-name:epDevLightsAnimation2;
		animation-duration: 2s;
		animation-iteration-count:infinite; 
		animation-direction: alternate-reverse; 
		animation-timing-function:ease-in;
	}

	@keyframes epDevLightsAnimation2 {
		
		0% {
    		fill: #EE3445;	
  		}

		50% {
			fill: #EE3445;
		}

		55%{
			fill: #44B649;
		}

  		100% {
		  fill: #44B649;
  		}
	}

	.devWheelsAnimation1 {
		animation-name:epDevWheelsAnimation1;
		animation-duration: 2s;
		animation-iteration-count:infinite; 
		animation-direction: alternate-reverse; 
		animation-timing-function:ease-in;
	}

	@keyframes epDevWheelsAnimation1 {
		
		0% {
		  	transform-origin: 130.7px 375px;
			transform: rotate(0deg); 
		}
		25% {
			transform-origin: 130.7px 375px;
			transform: rotate(120deg); 
		}
		30% {
			transform-origin: 130.7px 375px;
			transform: rotate(125deg); 
		}
		40% {
			transform-origin: 130.7px 375px;
			transform: rotate(125deg); 
		}
		50% {
			transform-origin: 130.7px 375px;
			transform: rotate(200deg); 
		}
		100% {
		  	transform-origin: 130.7px 375px;
			transform: rotate(360deg); 
		}
	}


	.devWheelsAnimation2 {
		animation-name:epDevWheelsAnimation2;
		animation-duration: 2s;
		animation-delay:0.1s;
		animation-iteration-count:infinite; 
		animation-direction: alternate-reverse; 
		animation-timing-function:ease-in;
	}

	@keyframes epDevWheelsAnimation2 {
		
		0% {
		  	transform-origin: 71.1px 375px;
			transform: rotate(0deg); 
		}
		25% {
			transform-origin: 71.1px 375px;
			transform: rotate(120deg); 
		}
		30% {
			transform-origin: 71.1px 375px;
			transform: rotate(125deg); 
		}
		40% {
			transform-origin: 71.1px 375px;
			transform: rotate(125deg); 
		}
		50% {
			transform-origin: 71.1px 375px;
			transform: rotate(200deg); 
		}
		100% {
		  	transform-origin: 71.1px 375px;
			transform: rotate(360deg); 
		}
	}

</style>
<rect x="254" y="377.4" class="st0" width="36" height="22"/>
<circle class="st1" cx="279.4" cy="388.4" r="6.5"/>
<circle class="st2" cx="264.4" cy="388.4" r="6.5"/>
<rect x="276.7" y="385.1" class="st3" width="5" height="2"/>
<rect x="276.7" y="389.6" class="st3" width="5" height="2"/>
<path class="st4" d="M264.4,388.1c0,0-2.6,20.1-15.7,20.2c-13.3,0-17.6-15.4-23.6-53"/>
<path class="st5" d="M131.4,129c0-7.3-5.2-13.4-12.1-14.7c-0.3-1.3-1.5-2.3-2.9-2.3s-2.6,1-2.9,2.3c-6.9,1.4-12.1,7.4-12.1,14.7v28
	h30V129z"/>
<path class="st1" d="M126.4,129c0-5.5-4.5-10-10-10s-10,4.5-10,10v28h20V129z"/>
<g>
	<rect x="251.7" y="263.4" transform="matrix(-0.7071 -0.7071 0.7071 -0.7071 238.072 650.3666)" class="st2" width="4" height="25"/>
	<circle class="st6" cx="262.5" cy="266.5" r="6.5"/>
</g>
<g>
	<path class="st1" d="M199.7,24H154c-7.5,0-13.6,6.1-13.6,13.6v86.7c0,7.5,6.1,13.6,13.6,13.6h8.3c2.5,0.2,4.5,2.4,4.5,5v18h20v-18
		c0-2.6,2-4.7,4.5-5h8.3c7.5,0,13.6-6.1,13.6-13.6V37.7C213.3,30.2,207.2,24,199.7,24z"/>
</g>
<rect x="39.4" y="162" class="st7" width="180" height="80"/>
<rect x="19.4" y="247" class="st7" width="220" height="180"/>
<rect x="201" y="427" class="st8" width="25.4" height="13"/>
<g>
	<circle class="st3" cx="97.4" cy="202" r="20"/>
	<circle class="st0" cx="97.4" cy="202" r="16"/>
	<circle class="st3" cx="97.4" cy="202" r="3"/>
	<rect x="97.4" y="201" class="st3" width="10" height="2"/>
	<polygon class="st3" points="106.6,199.2 109.5,202 106.6,204.8 	"/>
	<g>
		<path class="st9" d="M90.3,191.1l-0.5-0.8c3.7-2.4,8.4-2.9,12.5-1.4l-0.3,0.9C98.1,188.4,93.7,188.9,90.3,191.1z"/>
	</g>
	<g>
		<path class="st10" d="M108.5,196.3c-1.4-2.8-3.8-4.9-6.8-6l0.7-1.9c3.4,1.3,6.2,3.8,7.9,7L108.5,196.3z"/>
	</g>
	<path class="st6" d="M110.6,209c1.2-2.2,1.8-4.6,1.8-7c0-2.4-0.6-4.7-1.6-6.8l-2.7,1.4c0.9,1.7,1.3,3.5,1.3,5.5
		c0,1.6-0.3,3.1-0.9,4.5C109.3,207.3,110,208.1,110.6,209z"/>
	<path class="st3" d="M97.4,202c-5.9,0-11.1,3.2-13.8,8c2.8,4.8,7.9,8,13.8,8s11.1-3.2,13.8-8C108.4,205.2,103.3,202,97.4,202z"/>
	<rect x="84.4" y="224.5" class="st11" width="26" height="7"/>
	<rect x="129.4" y="224.5" class="st11" width="26" height="7"/>
	<circle class="st3" cx="142.4" cy="202" r="20"/>
	<circle class="st0" cx="142.4" cy="202" r="16"/>
	<circle class="st3" cx="142.4" cy="202" r="3"/>
	<rect x="142.4" y="201" class="st3" width="10" height="2"/>
	<polygon class="st3" points="151.6,199.2 154.5,202 151.6,204.8 	"/>
	<g>
		<path class="st9" d="M135.3,191.1l-0.5-0.8c3.7-2.4,8.4-2.9,12.5-1.4l-0.3,0.9C143.1,188.4,138.7,188.9,135.3,191.1z"/>
	</g>
	<g>
		<path class="st10" d="M153.5,196.3c-1.4-2.8-3.8-4.9-6.8-6l0.7-1.9c3.4,1.3,6.2,3.8,7.9,7L153.5,196.3z"/>
	</g>
	<path class="st6" d="M155.6,209c1.2-2.2,1.8-4.6,1.8-7c0-2.4-0.6-4.7-1.6-6.8l-2.7,1.4c0.9,1.7,1.3,3.5,1.3,5.5
		c0,1.6-0.3,3.1-0.9,4.5C154.3,207.3,155,208.1,155.6,209z"/>
	<path class="st3" d="M142.4,202c-5.9,0-11.1,3.2-13.8,8c2.8,4.8,7.9,8,13.8,8s11.1-3.2,13.8-8C153.4,205.2,148.3,202,142.4,202z"/>
	<rect x="174.4" y="224.5" class="st11" width="26" height="7"/>
	<circle class="st3" cx="187.4" cy="202" r="20"/>
	<circle class="st0" cx="187.4" cy="202" r="16"/>
	<circle class="st3" cx="187.4" cy="202" r="3"/>
	<rect x="187.4" y="201" class="st3" width="10" height="2"/>
	<polygon class="st3" points="196.6,199.2 199.5,202 196.6,204.8 	"/>
	<g>
		<path class="st9" d="M180.3,191.1l-0.5-0.8c3.7-2.4,8.4-2.9,12.5-1.4l-0.3,0.9C188.1,188.4,183.7,188.9,180.3,191.1z"/>
	</g>
	<g>
		<path class="st10" d="M198.5,196.3c-1.4-2.8-3.8-4.9-6.8-6l0.7-1.9c3.4,1.3,6.2,3.8,7.9,7L198.5,196.3z"/>
	</g>
	<path class="st6" d="M200.6,209c1.2-2.2,1.8-4.6,1.8-7c0-2.4-0.6-4.7-1.6-6.8l-2.7,1.4c0.9,1.7,1.3,3.5,1.3,5.5
		c0,1.6-0.3,3.1-0.9,4.5C199.3,207.3,200,208.1,200.6,209z"/>
	<path class="st3" d="M187.4,202c-5.9,0-11.1,3.2-13.8,8c2.8,4.8,7.9,8,13.8,8s11.1-3.2,13.8-8C198.4,205.2,193.3,202,187.4,202z"/>
</g>
<rect x="45.4" y="242" class="st8" width="168" height="5"/>
<g>
	<rect x="30.4" y="258.5" class="st11" width="140" height="75"/>
</g>
<g>
	<rect x="30.4" y="339" class="st11" width="140" height="75"/>
</g>
<path class="st2" d="M104.6,407h-9c-1.7,0-3-1.3-3-3v-4h15v4C107.6,405.7,106.2,407,104.6,407z"/>
<line class="st12" x1="71.1" y1="397.5" x2="128.2" y2="397.5"/>
<g class="devWheelsAnimation1">
	<circle class="" cx="130.7" cy="375" r="25"/>
	<circle class="st0" cx="130.7" cy="375" r="5"/>
	<g>
		<polygon class="st0" points="119.6,378.7 122.1,383 112.9,387.2 111.4,384.6 		"/>
	</g>
	<g>
		<polygon class="st0" points="139.1,383.2 141.6,378.8 149.8,384.7 148.3,387.3 		"/>
	</g>
	<g>
		<polygon class="st0" points="133.2,364 128.2,364 129.2,354 132.2,354 		"/>
	</g>
</g>

<g class="devWheelsAnimation2">
	<circle class="st3" cx="71.1" cy="375" r="25"/>
	<circle class="st0" cx="71.1" cy="375" r="5"/>
	<g>
		<polygon class="st0" points="59.9,378.7 62.4,383 53.3,387.2 51.8,384.6 		"/>
	</g>
	<g>
		<polygon class="st0" points="79.5,383.2 82,378.8 90.1,384.7 88.6,387.3 		"/>
	</g>
	<g>
		<polygon class="st0" points="73.6,364 68.6,364 69.6,354 72.6,354 		"/>
	</g>
</g>
<rect x="94.6" y="398" class="st3" width="11" height="2"/>
<path class="st13" d="M256.6,284.1c0-9.5-7.7-17.2-17.2-17.2v34.5C248.9,301.4,256.6,293.6,256.6,284.1z"/>
<g>
	<g>
		<path class="st14" d="M248,291.2l-1.4-1.4c2-2,3-4.6,3-7.3s-1.1-5.4-3-7.3l1.4-1.4c2.3,2.3,3.6,5.4,3.6,8.7
			C251.6,285.8,250.4,288.9,248,291.2z"/>
	</g>
	<polygon class="st14" points="245.6,288.8 245.6,292.2 249,292.2 	"/>
</g>
<g>
	<rect x="177.8" y="258.5" class="st3" width="50" height="155"/>
</g>
<path class="st15" d="M185.4,82.3c0,0,0,2.8,0,4.7l0,0c0,2.7-2.2,5-5,5h-19c-2.8,0-5,2.2-5,5v0c0,2.7,2.2,5,5,5h33c2.8,0,5,2.2,5,5
	v0c0,2.7-2.2,5-5,5h-33c-2.8,0-5,2.2-5,5v0c0,2.7,2.2,5,5,5h10.5c2.8,0,5,2.2,5,5v-0.5V162"/>
<polygon class="st11" points="42.4,239 39.4,242 39.4,162 42.4,165 "/>
<polygon class="st11" points="216.4,165 42.4,165 39.4,162 219.4,162 "/>
<polygon class="st6" points="219.4,242 216.4,239 216.4,165 219.4,162 "/>
<polygon class="st6" points="219.4,242 39.4,242 42.4,239 216.4,239 "/>
<polygon class="st11" points="236.4,250 22.4,250 19.4,247 239.4,247 "/>
<polygon class="st8" points="239.4,427 236.4,424 236.4,250 239.4,247 "/>
<polygon class="st8" points="239.4,427 19.4,427 22.4,424 236.4,424 "/>
<polygon class="st11" points="22.4,424 19.4,427 19.4,247 22.4,250 "/>
<rect x="32.4" y="427" class="st8" width="25.4" height="13"/>
<rect x="201" y="435" class="st11" width="25.4" height="5"/>
<rect x="32.4" y="435" class="st11" width="25.4" height="5"/>
<g>
	<g>
		<g>
			<path class="st3" d="M191.6,84.3c-2.4,0.3-4.7-0.1-6.8-1.3c-1.5,1-3.2,1.7-5,1.9c-1.9,0.3-3.8,0-5.5-0.6
				c-1.6,1.5-3.6,2.4-5.8,2.7c-4.1,0.6-8.1-1.2-10.4-4.6c-4.7-1.2-8.3-5.2-9-10.1c-0.4-2.9,0.3-5.8,1.8-8.2c1.4-2.2,3.5-3.8,5.9-4.7
				c0.2-2.1,1.1-4.2,2.5-5.8c1.6-1.9,3.9-3.1,6.4-3.4c0.8-0.1,1.5-0.1,2.3-0.1c1.9-3.2,5.1-5.3,8.8-5.8c4.8-0.7,9.5,1.6,12,5.7
				c0.6-0.2,1.3-0.4,1.9-0.5c5.5-0.8,10.6,3.1,11.4,8.7c0.1,0.8,0.1,1.6,0,2.4c2.6,1.6,4.3,4.2,4.7,7.2c0.7,5-2.5,9.8-7.4,11
				C197.9,81.8,195,83.8,191.6,84.3z"/>
		</g>
	</g>
</g>
<g>
	<path class="st11" d="M39.4,225.7h-7c-5.5,0-10-4.5-10-10v-26c0-5.5,4.5-10,10-10h7v6h-7c-2.2,0-4,1.8-4,4v26c0,2.2,1.8,4,4,4h7
		V225.7z"/>
</g>
<g>
	<path class="st8" d="M226.4,225.7h-7v-6h7c2.2,0,4-1.8,4-4v-26c0-2.2-1.8-4-4-4h-7v-6h7c5.5,0,10,4.5,10,10v26
		C236.4,221.2,231.9,225.7,226.4,225.7z"/>
</g>
<g>
	<rect x="184.8" y="266.1" class="devLightsAnimation1" width="9.8" height="9.8"/>
	<rect x="197.8" y="279.1" class="devLightsAnimation1" width="9.8" height="9.8"/>
	<rect x="184.8" y="292.1" class="devLightsAnimation1" width="9.8" height="9.8"/>
	<rect x="197.8" y="305.1" class="devLightsAnimation1" width="9.8" height="9.8"/>
	<rect x="210.8" y="318.1" class="devLightsAnimation1" width="9.8" height="9.8"/>
	<rect x="184.8" y="331.1" class="devLightsAnimation1" width="9.8" height="9.8"/>
	<rect x="210.8" y="331.1" class="devLightsAnimation1" width="9.8" height="9.8"/>
	<rect x="197.8" y="344.1" class="devLightsAnimation1" width="9.8" height="9.8"/>
	<rect x="197.8" y="357.1" class="devLightsAnimation1" width="9.8" height="9.8"/>
	<rect x="184.8" y="370.1" class="devLightsAnimation1" width="9.8" height="9.8"/>
	<rect x="210.8" y="370.1" class="devLightsAnimation1" width="9.8" height="9.8"/>
	<rect x="197.8" y="383.1" class="devLightsAnimation1" width="9.8" height="9.8"/>
	<rect x="184.8" y="396.1" class="devLightsAnimation1" width="9.8" height="9.8"/>
</g>
<g>
	<rect x="197.8" y="266.1" class="devLightsAnimation2" width="9.8" height="9.8"/>
	<rect x="184.8" y="279.1" class="devLightsAnimation2" width="9.8" height="9.8"/>
	<rect x="197.8" y="292.1" class="devLightsAnimation2" width="9.8" height="9.8"/>
	<rect x="210.8" y="305.1" class="devLightsAnimation2" width="9.8" height="9.8"/>
	<rect x="197.8" y="318.1" class="devLightsAnimation2" width="9.8" height="9.8"/>
	<rect x="184.8" y="344.1" class="devLightsAnimation2" width="9.8" height="9.8"/>
	<rect x="210.8" y="357.1" class="devLightsAnimation2" width="9.8" height="9.8"/>
	<rect x="197.8" y="370.1" class="devLightsAnimation2" width="9.8" height="9.8"/>
	<rect x="197.8" y="396.1" class="devLightsAnimation2" width="9.8" height="9.8"/>
</g>
<g>
	<rect x="210.8" y="266.1" class="st5" width="9.8" height="9.8"/>
	<rect x="210.8" y="279.1" class="st5" width="9.8" height="9.8"/>
	<rect x="210.8" y="292.1" class="st5" width="9.8" height="9.8"/>
	<rect x="184.8" y="305.1" class="st5" width="9.8" height="9.8"/>
	<rect x="184.8" y="318.1" class="st5" width="9.8" height="9.8"/>
	<rect x="197.8" y="331.1" class="st5" width="9.8" height="9.8"/>
	<rect x="210.8" y="344.1" class="st5" width="9.8" height="9.8"/>
	<rect x="184.8" y="357.1" class="st5" width="9.8" height="9.8"/>
	<rect x="184.8" y="383.1" class="st5" width="9.8" height="9.8"/>
	<rect x="210.8" y="383.1" class="st5" width="9.8" height="9.8"/>
	<rect x="210.8" y="396.1" class="st5" width="9.8" height="9.8"/>
</g>
<circle class="st5" cx="200.6" cy="93.8" r="3.5"/>
<circle class="st17" cx="173.3" cy="91.9" r="3.5"/>
<circle class="st5" cx="203.4" cy="100.9" r="2.4"/>
<circle class="st5" cx="203.4" cy="84.9" r="2.4"/>
<circle class="st5" cx="152.9" cy="49.1" r="3.5"/>
<circle class="st5" cx="150.4" cy="41.9" r="2.4"/>
<circle class="st5" cx="149.9" cy="57.9" r="2.4"/>
<rect x="45.4" y="168" class="st8" width="30" height="9"/>
<g>
	<path class="st0" d="M50.5,175.2h-1.9v-3.8h-1.4v-1.5h4.6v1.5h-1.4V175.2z"/>
	<path class="st0" d="M55.8,173.2h-1.5v2h-1.9v-5.3h1.8v1.8h1.5v-1.8h1.9v5.3h-1.9V173.2z"/>
	<path class="st0" d="M58.7,169.9h1.9v5.3h-1.9V169.9z"/>
	<path class="st0" d="M61.6,169.9h1.8l1.6,2.7h0l-0.1-2.7h1.8v5.3h-1.9l-1.5-2.5h0l0.1,2.5h-1.8V169.9z"/>
	<path class="st0" d="M69.6,173.1L69.6,173.1l0,2.1h-1.8v-5.3h1.8v1.9h0l1.5-1.9h2.2l-2.1,2.4l2.2,2.9h-2.3L69.6,173.1z"/>
</g>
<g>
	<path class="st3" d="M165.4,263.5v65h-130v-65H165.4 M170.4,258.5h-140v75h140V258.5L170.4,258.5z"/>
</g>
<g>
	<path class="st3" d="M165.4,344v65h-130v-65H165.4 M170.4,339h-140v75h140V339L170.4,339z"/>
</g>
<path class="st5" d="M199.7,29c4.8,0,8.6,3.9,8.6,8.6v86.7c0,4.8-3.9,8.6-8.6,8.6h-8.3h-0.2l-0.2,0c-5.2,0.5-9.1,4.8-9.1,9.9v15h-10
	v-15c0-5.2-3.9-9.5-9.1-9.9l-0.2,0h-0.2H154c-4.8,0-8.6-3.9-8.6-8.6V37.7c0-4.8,3.9-8.6,8.6-8.6H199.7 M199.7,24H154
	c-7.5,0-13.6,6.1-13.6,13.6v86.7c0,7.5,6.1,13.6,13.6,13.6h8.3c2.5,0.2,4.5,2.4,4.5,5v18h20v-18c0-2.6,2-4.7,4.5-5h8.3
	c7.5,0,13.6-6.1,13.6-13.6V37.7C213.3,30.2,207.2,24,199.7,24L199.7,24z"/>
<rect x="163.3" y="154" class="st11" width="27" height="8"/>
<rect x="96.4" y="157" class="st11" width="40" height="5"/>
<rect x="51.4" y="157" class="st11" width="40" height="5"/>
<path class="st5" d="M74.3,102.3c-0.3-1.3-1.5-2.3-2.9-2.3s-2.6,1-2.9,2.3c-6.9,1.4-12.1,7.4-12.1,14.7v40h30v-40
	C86.4,109.7,81.2,103.6,74.3,102.3z"/>
<path class="st1" d="M71.4,107c-5.5,0-10,4.5-10,10v40h20v-40C81.4,111.5,76.9,107,71.4,107z"/>
<circle class="st3" cx="53.4" cy="189" r="5"/>
<circle class="st3" cx="66.4" cy="189" r="5"/>
<circle class="st3" cx="53.4" cy="216" r="5"/>
<circle class="st3" cx="66.4" cy="216" r="5"/>
<circle class="st3" cx="53.4" cy="203" r="5"/>
<circle class="st3" cx="66.4" cy="203" r="5"/>
<g>
	<path class="st11" d="M63.9,218.2c-3.9,0-7-1.1-9.2-3.4c-4.4-4.5-3.4-11.7-3.4-12c0.2-1.1,1.2-1.9,2.3-1.7c1.1,0.2,1.8,1.2,1.7,2.3
		l0,0c0,0.1-0.7,5.6,2.3,8.7c1.8,1.8,4.6,2.5,8.5,2c1.1-0.1,2.1,0.7,2.2,1.8c0.1,1.1-0.7,2.1-1.8,2.2
		C65.7,218.1,64.8,218.2,63.9,218.2z"/>
</g>
<g>
	<path class="st5" d="M60.3,206c-3,0-5.3-0.9-7-2.6c-4.8-4.8-2.1-14-1.8-15c0.3-1.1,1.4-1.7,2.5-1.3c1.1,0.3,1.7,1.4,1.3,2.5l0,0
		c-0.7,2.2-1.8,8.4,0.8,11c2.1,2.1,6.4,1.4,9.7,0.5c1.1-0.3,2.2,0.3,2.5,1.3c0.3,1.1-0.3,2.2-1.3,2.5C64.5,205.7,62.2,206,60.3,206z
		"/>
</g>
<g>
	<path class="st18" d="M53.4,218c-0.7,0-1.4-0.4-1.8-1.1c-0.5-1-0.2-2.2,0.8-2.7c13.5-7.3,12-24.9,12-25c-0.1-1.1,0.7-2.1,1.8-2.2
		c1.1-0.1,2.1,0.7,2.2,1.8c0.1,0.8,1.8,20.4-14,29C54,217.9,53.7,218,53.4,218z"/>
</g>
<path class="st5" d="M107.5,273.9c7.8,7.8,7.8,37,0,44.8c-7.8,7.8-53.5,7.8-61.3,0c-7.8-7.8-7.8-37,0-44.8
	C54,266.1,99.7,266.1,107.5,273.9z"/>
<path class="st3" d="M105.4,275.4c7.3,7.3,7.3,34.4,0,41.7c-7.3,7.3-49.8,7.3-57.1,0s-7.3-34.4,0-41.7
	C55.6,268.1,98.1,268.1,105.4,275.4z"/>
<text transform="matrix(0.9888 0 0 1 58.8934 299.023)"><tspan x="0" y="0" class="st17 st19 st20">>...</tspan></text>
<circle class="st3" cx="150" cy="283.5" r="10"/>
<circle class="st16" cx="150" cy="283.5" r="6.4"/>
<path class="st3" d="M119.8,308h39.8c-0.1-0.7-0.2-1.4-0.5-2h-38.9C120,306.7,119.9,307.3,119.8,308z"/>
<path class="st3" d="M122.9,316h33.7c0.6-0.6,1.2-1.3,1.6-2h-36.9C121.7,314.7,122.2,315.4,122.9,316z"/>
<path class="st3" d="M120.3,312h38.9c0.2-0.6,0.4-1.3,0.5-2h-39.8C119.9,310.7,120,311.4,120.3,312z"/>
<path class="st3" d="M139.7,296c-5.7,0-10.8,1.5-14.4,4h28.8C150.5,297.6,145.4,296,139.7,296z"/>
<path class="st3" d="M139.7,322c5.7,0,10.8-1.5,14.4-4h-28.8C128.9,320.5,134,322,139.7,322z"/>
<path class="st3" d="M122.9,302c-0.6,0.6-1.2,1.3-1.6,2h36.9c-0.5-0.7-1-1.4-1.6-2H122.9z"/>
<circle class="st3" cx="127.8" cy="283.5" r="10"/>
<circle class="st6" cx="127.8" cy="283.5" r="4.8"/>
<path class="st21" d="M135.3,276.9l-0.4-0.4C135,276.6,135.2,276.7,135.3,276.9L135.3,276.9z"/>
<path class="st21" d="M134.5,276L134.5,276c0.1,0.1,0.3,0.3,0.4,0.4L134.5,276z"/>
<path class="st0" d="M132.5,279.7l2-2c-0.3-0.3-0.5-0.6-0.8-0.8l-2,2C131.9,279.1,132.2,279.4,132.5,279.7z"/>
<path class="st0" d="M121.2,276l-0.4,0.4C120.9,276.3,121.1,276.2,121.2,276L121.2,276z"/>
<path class="st0" d="M124,278.9l-2-2c-0.3,0.3-0.6,0.5-0.8,0.8l2,2C123.4,279.4,123.7,279.1,124,278.9z"/>
<path class="st0" d="M120.3,276.9L120.3,276.9c0.1-0.1,0.3-0.3,0.4-0.4L120.3,276.9z"/>
<path class="st0" d="M127.8,277.5c0.2,0,0.4,0,0.6,0v-2.8c-0.2,0-0.4,0-0.6,0s-0.4,0-0.6,0v2.8C127.4,277.5,127.6,277.5,127.8,277.5
	z"/>
<path class="st21" d="M137.8,282.9c0,0.2,0,0.4,0,0.6L137.8,282.9L137.8,282.9z"/>
<path class="st0" d="M137.8,284.1v-0.6C137.8,283.7,137.8,283.9,137.8,284.1L137.8,284.1z"/>
<path class="st0" d="M127.8,282.3c0.2,0,0.4,0,0.6,0v-2.8c-0.2,0-0.4,0-0.6,0s-0.4,0-0.6,0v2.8C127.4,282.3,127.6,282.3,127.8,282.3
	z"/>
</svg>
