<?xml version="1.0" encoding="utf-8"?>
<!-- Generator: Adobe Illustrator 18.0.0, SVG Export Plug-In . SVG Version: 6.00 Build 0)  -->
<!DOCTYPE svg PUBLIC "-//W3C//DTD SVG 1.1//EN" "http://www.w3.org/Graphics/SVG/1.1/DTD/svg11.dtd">
<svg version="1.1" id="Layer_1" xmlns="http://www.w3.org/2000/svg" xmlns:xlink="http://www.w3.org/1999/xlink" x="0px" y="0px"
	 viewBox="0 0 24 24" enable-background="new 0 0 24 24" xml:space="preserve">
<g>
	<g>
		<path fill="#00AEEF" d="M17,14.6l-6.8-5.7v7.3c0,0.4,0.3,0.7,0.7,0.7h12.2c0.4,0,0.7-0.3,0.7-0.7V8.9L17,14.6z"/>
		<polygon fill="#00AEEF" points="22.9,8 11,8 17,13 		"/>
	</g>
	<g>
		<path fill="#EFF8FE" d="M8.4,12.6H4.8c-0.3,0-0.6-0.3-0.6-0.6s0.3-0.6,0.6-0.6h3.6C8.8,11.4,9,11.7,9,12S8.8,12.6,8.4,12.6z"/>
	</g>
	<g>
		<path fill="#EFF8FE" d="M8.4,10.2H1.6C1.3,10.2,1,9.9,1,9.6C1,9.2,1.3,9,1.6,9h6.8C8.8,9,9,9.2,9,9.6C9,9.9,8.8,10.2,8.4,10.2z"/>
	</g>
	<g>
		<path fill="#EFF8FE" d="M8.4,15.1H6.6c-0.3,0-0.6-0.3-0.6-0.6s0.3-0.6,0.6-0.6h1.8c0.3,0,0.6,0.3,0.6,0.6S8.8,15.1,8.4,15.1z"/>
	</g>
</g>
</svg>
