<?xml version="1.0" encoding="utf-8"?>
<!-- Generator: Adobe Illustrator 18.0.0, SVG Export Plug-In . SVG Version: 6.00 Build 0)  -->
<!DOCTYPE svg PUBLIC "-//W3C//DTD SVG 1.1//EN" "http://www.w3.org/Graphics/SVG/1.1/DTD/svg11.dtd">
<svg version="1.1" id="Layer_1" xmlns="http://www.w3.org/2000/svg" xmlns:xlink="http://www.w3.org/1999/xlink" x="0px" y="0px"
	 viewBox="0 0 100 100" enable-background="new 0 0 100 100" xml:space="preserve">
<g>
	<g>
		<path fill="#2C3A46" d="M67.9,58.1L41,35.5v28.8c0,1.5,1.2,2.7,2.7,2.7H92c1.5,0,2.7-1.2,2.7-2.7V35.5L67.9,58.1z"/>
		<polygon fill="#2C3A46" points="91.4,32 44.4,32 67.9,51.7 		"/>
	</g>
	<g>
		<path fill="#2C3A46" d="M34.1,50.3H19.6c-1.3,0-2.4-1.1-2.4-2.4c0-1.3,1.1-2.4,2.4-2.4h14.5c1.3,0,2.4,1.1,2.4,2.4
			C36.5,49.3,35.4,50.3,34.1,50.3z"/>
	</g>
	<g>
		<path fill="#2C3A46" d="M34.1,40.6h-27c-1.3,0-2.4-1.1-2.4-2.4s1.1-2.4,2.4-2.4h27c1.3,0,2.4,1.1,2.4,2.4S35.4,40.6,34.1,40.6z"/>
	</g>
	<g>
		<path fill="#2C3A46" d="M34.1,60.1h-7.2c-1.3,0-2.4-1.1-2.4-2.4c0-1.3,1.1-2.4,2.4-2.4h7.2c1.3,0,2.4,1.1,2.4,2.4
			C36.5,59,35.4,60.1,34.1,60.1z"/>
	</g>
</g>
</svg>
