<?xml version="1.0" encoding="utf-8"?>
<!-- Generator: Adobe Illustrator 18.0.0, SVG Export Plug-In . SVG Version: 6.00 Build 0)  -->
<!DOCTYPE svg PUBLIC "-//W3C//DTD SVG 1.1//EN" "http://www.w3.org/Graphics/SVG/1.1/DTD/svg11.dtd">
<svg version="1.1" id="Layer_1" xmlns="http://www.w3.org/2000/svg" xmlns:xlink="http://www.w3.org/1999/xlink" x="0px" y="0px"
	 viewBox="0 0 128 128" enable-background="new 0 0 128 128" xml:space="preserve">
<path fill="#FFFFFF" d="M63.9,34.3h-0.3C50,34.3,39,45.5,39,59.1v28.5h6.7v-6.3c0-2,1.5-3.7,3.6-3.7h0.2c2,0,3.5,1.6,3.5,3.7v6.3
	h7.2v-6.3c0-2,1.6-3.7,3.7-3.7H64c2,0,3.3,1.6,3.3,3.7v6.3H74v-6.3c0-2,1.8-3.7,3.8-3.7H78c2,0,3.8,1.6,3.8,3.7v6.3H89V59.1
	C89,45.5,77.5,34.3,63.9,34.3z M53.3,57.1c-2.6,0-4.7-2.1-4.7-4.7c0-2.6,2.1-4.7,4.7-4.7c2.6,0,4.7,2.1,4.7,4.7
	C58,55,55.9,57.1,53.3,57.1z M74.3,57.1c-2.6,0-4.7-2.1-4.7-4.7c0-2.6,2.1-4.7,4.7-4.7c2.6,0,4.7,2.1,4.7,4.7
	C79,55,76.9,57.1,74.3,57.1z"/>
</svg>
