<?xml version="1.0" encoding="utf-8"?>
<!-- Generator: Adobe Illustrator 18.0.0, SVG Export Plug-In . SVG Version: 6.00 Build 0)  -->
<!DOCTYPE svg PUBLIC "-//W3C//DTD SVG 1.1//EN" "http://www.w3.org/Graphics/SVG/1.1/DTD/svg11.dtd">
<svg version="1.1" xmlns="http://www.w3.org/2000/svg" xmlns:xlink="http://www.w3.org/1999/xlink" x="0px" y="0px"
	 viewBox="0 0 128 128" enable-background="new 0 0 128 128" xml:space="preserve">
<g id="coding" display="none">
	<path display="inline" fill="#27AAE1" d="M64,0C28.7,0,0,28.7,0,64c0,35.3,28.7,64,64,64s64-28.7,64-64C128,28.7,99.3,0,64,0z
		 M54.7,84c1.2,1.2,1.2,3.1,0,4.2c-0.6,0.6-1.4,0.9-2.1,0.9s-1.5-0.3-2.1-0.9L28.3,66.1c0,0,0,0,0,0c-1.2-1.2-1.2-3.1,0-4.2
		l22.2-22.2c1.2-1.2,3.1-1.2,4.2,0c1.2,1.2,1.2,3.1,0,4.2l-20,20L54.7,84z M100.4,65.1c-0.1,0.4-0.4,0.7-0.7,1L77.5,88.3
		c-0.6,0.6-1.4,0.9-2.1,0.9s-1.5-0.3-2.1-0.9c-1.2-1.2-1.2-3.1,0-4.2l20-20l-20-20c-1.2-1.2-1.2-3.1,0-4.2c1.2-1.2,3.1-1.2,4.2,0
		l22.2,22.2c0,0,0,0,0,0c0.6,0.6,0.9,1.4,0.9,2.1C100.6,64.4,100.5,64.8,100.4,65.1z"/>
</g>
<g id="Layer_2" display="none">
	<g display="inline">
		<g>
			<rect x="28" y="38.8" fill="#EC008C" width="72.1" height="15.2"/>
			<path fill="#EC008C" d="M28,89.2H100V60H28V89.2z M58.4,66.3H94v4H58.4V66.3z M58.4,78.3H94v4H58.4V78.3z M35.2,66.3h16.3v16.3
				H35.2V66.3z"/>
			<path fill="#EC008C" d="M64,0C28.7,0,0,28.7,0,64c0,35.3,28.7,64,64,64s64-28.7,64-64C128,28.7,99.3,0,64,0z M106,92.2
				c0,1.7-1.3,3-3,3H25c-1.7,0-3-1.3-3-3V35.8c0-1.7,1.3-3,3-3H103c1.7,0,3,1.3,3,3V92.2z"/>
		</g>
		<circle fill="#EF4136" cx="35.2" cy="46.5" r="3.7"/>
		<circle fill="#FFDE17" cx="45.2" cy="46.5" r="3.7"/>
		<circle fill="#2BB673" cx="55.2" cy="46.5" r="3.7"/>
	</g>
</g>
<g id="Layer_3" display="none">
	<path display="inline" fill="#00A651" d="M109.3,18.7c-25-25-65.5-25-90.5,0c-25,25-25,65.5,0,90.5s65.5,25,90.5,0
		C134.2,84.3,134.2,43.7,109.3,18.7z M94.4,94.4C86,102.8,75,107,64,107c-11,0-22-4.2-30.4-12.6C18.4,79.3,17,55.5,29.2,38.7h-7.6
		c-1.7,0-3-1.3-3-3s1.3-3,3-3h14.1c0.2,0,0.4,0,0.6,0.1c0.1,0,0.2,0.1,0.3,0.1c0.1,0,0.2,0.1,0.3,0.1c0.1,0,0.2,0.1,0.3,0.2
		c0.1,0,0.2,0.1,0.2,0.1c0.3,0.2,0.6,0.5,0.8,0.8c0,0.1,0.1,0.1,0.1,0.2c0.1,0.1,0.1,0.2,0.2,0.3c0,0.1,0.1,0.2,0.1,0.3
		c0,0.1,0.1,0.2,0.1,0.3c0,0.2,0.1,0.4,0.1,0.6v14.1c0,1.7-1.3,3-3,3s-3-1.3-3-3v-5.6c-9,14.3-7.3,33.5,5.1,45.9
		c14.4,14.4,37.9,14.4,52.3,0c14.4-14.4,14.4-37.9,0-52.3c-12-12-30.5-14.3-45-5.7c-1.4,0.8-3.3,0.4-4.1-1.1
		c-0.8-1.4-0.4-3.3,1.1-4.1c16.9-10,38.4-7.3,52.3,6.6C111.2,50.4,111.2,77.6,94.4,94.4z M73.5,61h9.9c1.7,0,3,1.3,3,3
		c0,1.7-1.3,3-3,3h-9.9c-1.3,4.1-5.1,7-9.5,7c-5.5,0-10-4.5-10-10c0-4.5,2.9-8.3,7-9.5v-15c0-1.7,1.3-3,3-3c1.7,0,3,1.3,3,3v15
		C70.1,55.4,72.6,57.9,73.5,61z"/>
</g>
<g id="Layer_4" display="none">
	<circle display="inline" fill="#00A651" cx="64" cy="64" r="64"/>
	<g display="inline">
		<path fill="#FFFFFF" d="M97.4,94l-2.8-12.2c1.3-3.1,2-6.4,2-9.8c0-13.6-11.1-24.7-24.7-24.7c-0.1,0-0.3,0-0.4,0
			c-3.9-9-12.7-14.9-22.6-14.9c-13.6,0-24.7,11.1-24.7,24.7s11.1,24.7,24.7,24.7c0.1,0,0.3,0,0.4,0c3.8,8.8,12.5,14.9,22.7,14.9
			c3.3,0,6.4-0.6,9.4-1.9l12.5,2.8c0.2,0,0.4,0.1,0.7,0.1c0.8,0,1.6-0.3,2.1-0.9C97.3,96,97.6,95,97.4,94z M88.5,82.1l1.9,8.6
			l-8.8-2c-0.2,0-0.4-0.1-0.7-0.1c-0.4,0-0.9,0.1-1.3,0.3c-2.5,1.1-5.1,1.7-7.8,1.7c-10.3,0-18.7-8.4-18.7-18.7S61.7,53.3,72,53.3
			s18.7,8.4,18.7,18.7c0,2.9-0.6,5.6-1.9,8.1C88.5,80.7,88.4,81.4,88.5,82.1z"/>
		<g>
			<path fill="#FFFFFF" d="M80.3,74.9H63.5c-1.4,0-2.5-1.1-2.5-2.5s1.1-2.5,2.5-2.5h16.8c1.4,0,2.5,1.1,2.5,2.5S81.7,74.9,80.3,74.9
				z"/>
		</g>
		<g>
			<path fill="#FFFFFF" d="M80.3,66.9H63.5c-1.4,0-2.5-1.1-2.5-2.5s1.1-2.5,2.5-2.5h16.8c1.4,0,2.5,1.1,2.5,2.5S81.7,66.9,80.3,66.9
				z"/>
		</g>
		<g>
			<path fill="#FFFFFF" d="M80.3,82.9H63.5c-1.4,0-2.5-1.1-2.5-2.5s1.1-2.5,2.5-2.5h16.8c1.4,0,2.5,1.1,2.5,2.5S81.7,82.9,80.3,82.9
				z"/>
		</g>
	</g>
</g>
<g id="Layer_5">
	<circle fill="#FFFFFF" cx="64" cy="64" r="64"/>
</g>
</svg>
