<?xml version="1.0" encoding="utf-8"?>
<!-- Generator: Adobe Illustrator 18.0.0, SVG Export Plug-In . SVG Version: 6.00 Build 0)  -->
<!DOCTYPE svg PUBLIC "-//W3C//DTD SVG 1.1//EN" "http://www.w3.org/Graphics/SVG/1.1/DTD/svg11.dtd">
<svg version="1.1"
	 id="svg2" xmlns:rdf="http://www.w3.org/1999/02/22-rdf-syntax-ns#" xmlns:cc="http://creativecommons.org/ns#" xmlns:dc="http://purl.org/dc/elements/1.1/"
	 xmlns="http://www.w3.org/2000/svg" xmlns:xlink="http://www.w3.org/1999/xlink" x="0px" y="0px" viewBox="0 0 520 100"
	 enable-background="new 0 0 520 100" xml:space="preserve">
<path id="path2998" fill="#A1A9B0" d="M82.6,38.6H52.7v8.9h21.2c-1,12.4-11.4,17.8-21.2,17.8c-12.5,0-23.4-9.8-23.4-23.6
	c0-13.4,10.4-23.8,23.4-23.8c10.1,0,16,6.4,16,6.4l6.2-6.4c0,0-8-8.9-22.5-8.9C33.9,9,19.6,24.6,19.6,41.5
	c0,16.5,13.5,32.7,33.3,32.7c17.5,0,30.2-12,30.2-29.6C83.2,40.8,82.6,38.6,82.6,38.6L82.6,38.6z"/>
<path id="path3000" fill="#A1A9B0" d="M107.1,32.2C94.8,32.2,86,41.8,86,53c0,11.4,8.5,21.1,21.2,21.1c11.5,0,20.9-8.8,20.9-20.9
	C128.1,39.4,117.2,32.2,107.1,32.2L107.1,32.2z M107.2,40.4c6,0,11.8,4.9,11.8,12.7c0,7.7-5.7,12.7-11.8,12.7c-6.7,0-12-5.4-12-12.8
	C95.2,45.9,100.5,40.4,107.2,40.4L107.2,40.4z"/>
<path id="path3005" fill="#A1A9B0" d="M152.9,32.2c-12.3,0-21.1,9.6-21.1,20.8c0,11.4,8.5,21.1,21.2,21.1c11.5,0,20.9-8.8,20.9-20.9
	C174,39.4,163,32.2,152.9,32.2L152.9,32.2z M153.1,40.4c6,0,11.8,4.9,11.8,12.7c0,7.7-5.7,12.7-11.8,12.7c-6.7,0-12-5.4-12-12.8
	C141.1,45.9,146.3,40.4,153.1,40.4L153.1,40.4z"/>
<path id="path3007" fill="#A1A9B0" d="M197.9,32.2c-11.3,0-20.1,9.9-20.1,20.9c0,12.6,10.3,21,19.9,21c6,0,9.1-2.4,11.5-5.1v4.1
	c0,7.2-4.4,11.6-11,11.6c-6.4,0-9.6-4.8-10.7-7.5l-8.1,3.4c2.9,6,8.6,12.3,18.9,12.3c11.2,0,19.7-7.1,19.7-21.9V33.5h-8.8V37
	C206.5,34.1,202.8,32.2,197.9,32.2L197.9,32.2z M198.7,40.4c5.5,0,11.2,4.7,11.2,12.8c0,8.2-5.7,12.7-11.3,12.7
	c-6,0-11.6-4.9-11.6-12.6C187,45.2,192.8,40.4,198.7,40.4L198.7,40.4z"/>
<path id="path3011" fill="#A1A9B0" d="M257,32.2c-10.6,0-19.5,8.5-19.5,20.9c0,13.2,9.9,21,20.6,21c8.9,0,14.3-4.9,17.6-9.2
	l-7.2-4.8c-1.9,2.9-5,5.8-10.3,5.8c-5.9,0-8.6-3.2-10.3-6.4l28.1-11.7l-1.5-3.4C271.8,37.8,265.4,32.2,257,32.2L257,32.2z
	 M257.4,40.2c3.8,0,6.6,2,7.8,4.5l-18.8,7.8C245.6,46.5,251.3,40.2,257.4,40.2L257.4,40.2z"/>
<path id="path3015" fill="#A1A9B0" d="M224.1,72.9h9.2V11.1h-9.2V72.9z"/>
<text transform="matrix(1 0 0 1 290.1695 75.711)" fill="#A1A9B0" font-family="'SFUIText-Regular'" font-size="91.9783" letter-spacing="-5">Fonts</text>
<image overflow="visible" width="211" height="44" xlink:href="googleFonts.png"  transform="matrix(3.3472 0 0 3.3472 348.7509 -346.5178)">
</image>
</svg>
