<?xml version="1.0" encoding="utf-8"?>
<!-- Generator: Adobe Illustrator 18.0.0, SVG Export Plug-In . SVG Version: 6.00 Build 0)  -->
<!DOCTYPE svg PUBLIC "-//W3C//DTD SVG 1.1//EN" "http://www.w3.org/Graphics/SVG/1.1/DTD/svg11.dtd">
<svg version="1.1" id="Layer_1" xmlns="http://www.w3.org/2000/svg" xmlns:xlink="http://www.w3.org/1999/xlink" x="0px" y="0px"
	 width="356px" height="300px" viewBox="0 0 356 300" style="enable-background:new 0 0 356 300;" xml:space="preserve">
<style type="text/css">
	.st0{fill:#FFF200;}
	.st1{fill:#39C6F4;}
	.st2{fill:#2C0D3C;}
	.st3{fill:#D42027;}
</style>
<g>
	<path class="st0" d="M337.7,85.8c-1.4-1.6-3.5-2.7-5.6-2.9c-0.9-5.6-3.1-10.8-4.1-16.3c0.2-2.1,0.4-4.2,0.7-6.3l0.1-0.5v-0.5
		c0-4-2.5-7.5-6.1-9c-4.5-1.9-9.7-0.7-13.4,2.4c1-3.4,2-6.6,3.1-9.7l0.1-0.3l0.1-0.3c1-3.6,1.3-7.7-0.7-11
		c-2.2-3.6-6.4-5.2-10.4-4.2l-0.5,0.1c-2.4,0.5-4.8,1.1-7.1,2.3c-3.1,1.6-5.3,4.2-6.7,7.4c-3.1-2.6-6.2-5.2-9.4-7.8
		c-2.4-1.9-4.8-4-7.7-5.2c-2.9-1.2-6.2-1.5-9,0c-3,1.6-4.6,4.7-4.9,8l0,0.3c-0.4,3.8-0.6,7.7,0,11.5l0,0.2c0.7,4.3,2.8,7.2,6.1,8.5
		c1,0.5,4.6,2.6,17.2,11.4c-0.8,3-1.7,6-2.5,9.1H273c0.2-0.6,0.4-1.2,0.6-1.8l0.4-1.3v-1.3c0-6.2-6.1-11.8-12.3-11.3
		c-3.4,0.2-6.1,2.3-8.1,4.9c-2.2,3-4.1,6.2-5.4,9.7c-3.4-0.8-7-0.1-10.2,1.1h-7.5c-1.5-1.6-3.4-2.7-5.1-4c1.2-4.1,2.3-8.1,3.7-11.9
		l0.1-0.3l0.1-0.3c1-3.6,1.3-7.7-0.7-11c-2.2-3.6-6.4-5.2-10.4-4.2l-0.5,0.1c-2.5,0.5-4.9,1.2-7.2,2.4c-3,1.6-5.2,4.2-6.6,7.3
		c-1.3-1.1-2.7-2.2-4-3.4l-1.2-1c-2.5-2.1-5-4.2-7.7-6.2c-2.4-1.8-5.2-3.2-8.3-3.5c-5.4-0.4-9.3,3.9-9.8,9l0,0.3
		c-0.5,5.4-1.2,11.9,2,16.6c1.4,2.1,3.4,3.2,5.5,4.5c2.7,1.7,5.4,3.5,8,5.3c-2.6-0.9-5.5-0.9-8.1,0h-26.7c1.5-4.9,3.9-10.4,1.9-15.6
		c-0.8-2.2-2.4-4-4.5-5c-2.7-1.4-5.7-1.2-8.6-0.4l-0.1,0l-0.2,0.1v0l-0.1,0l-0.1,0l-0.6,0.2c-0.7,0.2-1.5,0.5-2.2,0.7
		c-2.9-3.8-7.9-4.3-12.2-3.1c-4.2,1.2-8.4,3.3-11.1,6.8c-3.8-1-7.7,0.3-10.7,2.8c-2.7,2.2-4.6,5.2-6.6,8l-0.1,0.2l-0.1,0.2
		c-1.1,1.7-2.1,3.4-3.2,5.1h-41v26.9c-9.6,11.1-12.4,27.5-5.7,40.8c-3.6,4.7-7.4,9.3-11.4,13.7c-1.9,2.1-3.8,4.1-5.9,6
		c-1,1-2.1,1.9-3.3,2.8c-1,0.8-2.2,1.8-3.4,2.2c-0.2,0.1-1-0.1-1.2-0.1c-2.6-1-5.6-0.8-8,0.6c-3.7,2.1-5.3,6.3-5.8,10.3
		c-0.3,2.3-0.4,4.6-0.5,6.9c-0.1,2.6,0.3,5.1,1.8,7.3c3.1,4.5,8.8,5.1,13.8,4c6.1-1.4,11.5-4.8,16.1-8.9c5-4.3,9.4-9.3,13.6-14.5v91
		h255V125.4c3.9-0.3,7.7-1.2,11.1-3.2c3-1.8,5.7-4.1,8.2-6.6c2.7-2.8,5-5.9,7-9.3c2-3.5,3.7-7.2,4.2-11.2l0-0.1
		C340,93.3,340.6,89.1,337.7,85.8C336.2,84.1,340.6,89.1,337.7,85.8z"/>
	<g>
		<g>
			<rect x="57.3" y="169" class="st1" width="60" height="90"/>
		</g>
		<g>
			<rect x="120.3" y="169" class="st1" width="60" height="90"/>
		</g>
		<g>
			<rect x="183.3" y="169" class="st1" width="60" height="90"/>
		</g>
		<g>
			<rect x="246.3" y="169" class="st1" width="60" height="90"/>
		</g>
	</g>
	<g>
		<g>
			<path class="st2" d="M83.4,180.6h8v64.1h-8V180.6z"/>
		</g>
		<g>
			<path class="st2" d="M137.5,180.6h11.8c4.5,0,8,1.5,10.4,4.4c2.4,2.9,3.6,7,3.6,12.2v30c0,6-1.3,10.4-3.8,13.3
				c-2.5,2.9-6.2,4.3-10.9,4.3h-11.1V180.6z M145.5,236.1h3.7c2.2,0,3.8-0.6,4.8-1.9c0.9-1.3,1.4-3.3,1.4-6.1v-30.9
				c0-2.5-0.4-4.5-1.3-5.9c-0.9-1.4-2.5-2.1-4.9-2.1h-3.7V236.1z"/>
		</g>
		<g>
			<path class="st2" d="M202.3,180.6h23.8v8.6h-15.8v18.8h13.8v8.6h-13.8v18.8h15.8v9.2h-23.8V180.6z"/>
		</g>
		<g>
			<path class="st2" d="M273.5,180.6h6.7l12.5,64.1h-8l-2.3-13.8h-10.9l-2.3,13.8h-8L273.5,180.6z M276.9,199.1h-0.2l-3.9,23.2h8
				L276.9,199.1z"/>
		</g>
	</g>
	<g>
		<g>
			<path class="st2" d="M242.3,146.8h-0.1l-3.5,16.1l-4.4-24h2l2.5,15.2h0.1l3.4-16.3l3.2,16.3h0.1l2.8-15.2h1.8l-4.7,24
				L242.3,146.8z"/>
			<path class="st2" d="M253,161.8v-22.9h1.9v22.9H253z"/>
			<path class="st2" d="M259.9,161.8v-21.1h-2.4v-1.9h6.6v1.9h-2.4v21.1H259.9z"/>
			<path class="st2" d="M272,161.8v-5.7h-3.5v5.7h-1.9v-22.9h1.9v15.8h3.5v-15.8h1.9v22.9H272z"/>
			<path class="st2" d="M288.5,156.1h-3.2l-1,5.7h-1.8l4.5-24l4.3,24h-1.9L288.5,156.1z M285.5,154.7h2.8l-1.3-7.7h-0.1L285.5,154.7
				z"/>
			<path class="st2" d="M296,148.1h-0.1v13.7h-1.8v-24l5.5,15.6h0.1v-14.5h1.7v24L296,148.1z"/>
		</g>
	</g>
	<g>
		<g>
			<path class="st3" d="M58.7,122.6C58.7,122.6,58.7,122.6,58.7,122.6C58.7,122.6,58.7,122.6,58.7,122.6z"/>
		</g>
		<line class="st3" x1="68.6" y1="137.8" x2="68.6" y2="137.8"/>
		<g>
			<path class="st3" d="M102.9,85.4c-0.1,0.2-0.2,0.4-0.3,0.5C101.7,87.2,102.9,85.5,102.9,85.4z"/>
		</g>
		<g>
			<path class="st3" d="M144.2,59.8c-1.8,0.5-3.6,1.2-5.1,2.2c-1.7,1.1-2.4,2.5-2.8,4.4c0.1-0.3-5.4,21.8-8.4,33.1
				c-3,11.3-6,22.7-7.7,34.3c-0.9,1.2-1.8,2.4-2.7,3.5c-0.6,0.8-1.6,2.1-2.8,2.1c-1.9-0.1-0.5-5.9-0.3-6.8
				c1.3-6.4,2.9-12.6,4.5-18.9c3.3-12.8,6.7-25.6,10.2-38.3c0.9-3.4,1.9-6.9,2.8-10.3c0.4-1.5,2.8-7.2,0-7.7c-1.9-0.3-4.3,0.8-6,1.5
				c-2.1,1-3.9,2.4-4.5,4.5c-0.3,1.1-0.4,2.4-0.6,3.5c-0.2,1.3-0.5,2.5-0.7,3.8c-0.5,2.7-1.1,5.3-1.7,7.9
				c-1.2,5.2-2.5,10.4-3.8,15.5c-2.7,10.5-5.7,21-7.9,31.7c-1.7,1.3-3.4,2.5-5.2,3.8c-1.7,1.2-3.4,2.4-5.5,2.9
				c2.8-12.4,6.6-24.5,10.8-36.5c2.1-6,4.3-12,6.5-17.9c1.1-3,2.2-6,3.3-8.9c0.7-2.2-1.4-5.2-3.9-4.8c-1.7,0.3-3.1,1.9-4.2,3.2
				c-1.2,1.4-2.2,3.1-3.4,4.6c-6.4,10.2-12.9,20.3-19.7,30.3c-1.8-2-3.9-3.7-6.5-4.3c-3-0.7-6.1-0.7-9,0.2c-5,1.6-9,5.4-11.8,9.6
				c-6.4,9.6-7.3,22.3-0.6,32.1c0.3,0.4,0.5,0.7,0.8,1.1c-5.2,6.9-10.6,13.7-16.6,20.1c-2.9,3.1-6,6.2-9.4,8.8
				c-1.6,1.2-3.2,2.4-5.1,3c-2.1,0.7-4.3,0.5-6.3,0c-3.7-2-3.7,7.6-3.8,9.1c-0.1,2-0.5,4.3,1.9,4.7c1.7,0.3,3.5-0.1,5.1-0.5
				c5.5-1.6,10.3-5.6,14.4-9.6c4.4-4.2,8.2-8.9,11.9-13.7c4.6-6,8.9-12.1,13.7-18c2.7,1,5.5,1.3,8.3,1.3c2.6,0,5.3-0.2,7.8-1
				c-0.8,3.6-2.4,6.9-2.6,10.6c-0.1,1.1,0.3,2.1,1.6,2.1c1.7,0.1,3.6-0.5,5.3-0.8c1.6-0.3,3.3-0.5,4.8-1.2c1.4-0.7,2.1-1.9,2.6-3.3
				c1.2-3.6,1.8-7.4,2.6-11.1c3.8-1.4,7.4-4.2,10.7-6.5c-0.6,4.3-1.3,8.7-0.6,13.1c0.2,1.4,0.7,3.2,2.1,3.7c1.8,0.7,3.9-0.1,5.4-1
				c3-1.6,5.5-4.6,7.6-7.1c0.1,1.7,0.3,4,1.7,5.1c1.7,1.4,4.4,0.3,6-0.6c2.6-1.4,4.7-3.8,6.6-5.9c2-2.3,3.8-4.7,5.3-7.3
				c1.5-2.5,2.7-5.2,3.3-8c0.2-0.9,0.7-4.9-1.3-3.4c-1.1,0.9-2,2.2-2.7,3.4c-1.4,2.1-2.9,4.2-4.4,6.3c-0.5,0.7-4,5.5-4.8,3
				c-0.4-1.1-0.1-2.4,0-3.4c0.2-1.7,0.6-3.3,0.9-4.9c2.7-12.7,6.3-25.3,10-37.7c1.9-6.3,3.8-12.5,5.6-18.8c0.8-2.9,2-5.9,2.4-8.8
				c0.1-0.9,0.2-2.4-0.8-2.8c-0.9-0.3-2,0-2.9,0.2C144.4,59.7,144.3,59.8,144.2,59.8C141.4,60.6,145.2,59.5,144.2,59.8z M82.7,129.5
				c-0.1,2.5-0.4,5.1-0.7,7.6c-3.8,1.1-7.9,1.9-11.8,1.1c-0.7-0.1-1.2-0.2-1.6-0.5c4.4-6.5,8.9-12.9,13.2-19.5
				C82.5,122,82.9,125.8,82.7,129.5C82.6,132.1,82.9,125.8,82.7,129.5z M59.8,129.3c-0.8-2.1-1-4.5-1-6.8c0.3-5.1,2.9-10.2,7.1-13.2
				c4-2.8,11.1-2.5,13.9,1.9c-5.3,7.8-10.9,15.4-16.3,23.2C61.7,132.8,60.5,131.3,59.8,129.3z M88.6,107.7
				c4.8-7.4,9.5-14.8,14.3-22.2c0.1,0.2,0.2,0.3,0.3,0.4c-5,10.5-9,21.4-12.8,32.4C90.6,114.6,90.2,111,88.6,107.7z"/>
		</g>
		<g>
			<path class="st3" d="M211.8,53.4C212.1,52.8,211.4,54.3,211.8,53.4L211.8,53.4z"/>
		</g>
		<g>
			<path class="st3" d="M295,39.2C295.3,38.5,294.6,40,295,39.2L295,39.2z"/>
		</g>
		<g>
			<path class="st3" d="M331.2,90.9c-1,0.2-1.6,1.4-2,2.2c-0.8,1.3-1.8,2.6-2.7,3.8c-2,2.6-4.2,5-6.9,6.9c2.5-3.2,4.2-6.8,4.9-10.8
				c0.5-4.5-0.1-9-1.2-13.3c-1.1-4.3-2.7-8.5-3.3-13c0.3-2.5,0.5-5,0.8-7.4c0-1.3-1.5-1.9-2.7-2c-1.7,0-3.4,1-4.6,2.3
				c-2.2,2.4-3.2,6.1-2.3,9.3c-4.2,9.9-8.5,19.9-14.1,29.1c-2.3,3.1-3.9,6.5-6.6,9.2c-0.7,0.7-1.9,2.2-3,2.1c-1.6,0-0.5-4.5-0.4-5.3
				c0.9-6.1,2.6-12.1,4.3-18c1.7-5.9,3.5-11.9,5-17.8l0.5-1.9c1.4,0.8,2.7,1.8,4,2.8c1.1,0.9,2.2,1.8,3.7,1.9
				c2.7,0.5,3.9-2.4,4.3-4.6c0.2-2.1-1.8-3-3.3-4.1c-2.1-1.5-4.1-3.1-6.1-4.7c1.7-5.8,3.3-11.8,5.4-17.5c0.4-1.5,1.3-5.9-1.6-5.1
				c-2.7,0.6-6.2,1.2-7.9,3.6c-1.1,1.6-1.6,3.8-2.2,5.7c-0.6,2.2-1.1,4.5-1.8,6.7c-4.4-3.8-17.6-14.8-19.8-16.4
				c-1.7-1.3-3.9-3.4-6.2-3.5c-1-0.2-1.2,1-1.3,1.8c-0.1,1.5-0.3,3-0.3,4.5c0,1.7,0,3.4,0.3,5.1c0.2,0.9,0.3,2.4,1.4,2.7
				c4,1.8,19.3,12.7,23.3,15.5c-2,7.2-4.1,14.3-5.9,21.5c-1.9,7.3-3.7,14.6-4.8,22c-1,1.5-2.1,3-3.2,4.4c-0.9,1.1-2.1,3-3.5,3.5
				c-1.7,0.6-1.3-2.5-1.2-3.3c0.2-2,0.6-4,1.1-6c0.9-3.9,2-7.7,3.2-11.6c0.4-1.4,1-2.7,1.4-4.1c0.3-1.2,0.6-2.7-0.6-3.6
				c-2-1-4.1-1.9-6.1-2.8c-1-0.5-2-1-3-1.5c-0.6-0.3-1.9-0.7-2.2-1.3c-0.5-1,0.1-2.5,0.4-3.5c0.6-2,1.1-3.9,1.8-5.9
				c0-1.6-2.6-4-4.3-3.2c-1,0.5-1.7,1.7-2.4,2.6c-0.8,1.2-1.6,2.4-2.3,3.7c-2.4,4.6-3.6,10.5-0.5,15.1c-1.1,6.3-8.9,22.9-10.6,25.3
				c-0.8,1.1-1.6,2.3-2.5,3.3c-0.6,0.7-1.8,2.3-2.9,2.1c-0.9-0.2-0.8-1.4-0.8-2.1c0-1.7,0.2-3.4,0.5-5.1c0.6-3.2,1.3-6.3,2.3-9.4
				c0.4-1.4,0.9-2.8,1.4-4.2c0.3-0.7,0.6-1.3,0.9-2c0.3-0.6,0.7-1.1,0.7-1.7c0.1-2.4-4.3-0.5-5.4,0c-2,0.9-3.8,2.4-5,4.3
				c-1.5,2.3-2.1,5.1-2.9,7.7c-1,3.4-1.9,6.8-3.4,10.1c-1.1,2.3-2.6,5-5.3,5.4c-1.9-0.1-2.2-2-2.2-3.5c0-2.4,0.5-4.9,1.1-7.2
				c1.5-5.1,4-9.8,7.3-13.9c3-3.7,6.8-7,11.4-8.5c1.2-0.4,2.5-0.7,3.9-0.5c1,0.2,2.3,0.5,3.1-0.3c1-1.1,0.4-3.2,0-4.5
				c-0.8-4.6-7.8-1.5-10.3-0.4c-4.3,1.8-8.2,4.6-11.5,7.9c-6.9,6.7-12,15.5-14.1,24.9c-1.9,2.9-3.5,5.7-6,8.1
				c-0.5,0.5-1.9,1.9-2.7,1.4c-0.6-0.4-0.5-1.6-0.5-2.2c0-1.4,0.3-2.8,0.6-4.2c2-11.8,6.1-23.2,9.1-34.8l0.5-1.9
				c1.4,0.8,2.7,1.8,4,2.8c1.1,0.9,2.2,1.8,3.7,2c2.7,0.6,3.9-2.4,4.3-4.6c0.2-2.2-1.9-3.1-3.4-4.2c-2.1-1.5-4-3-6-4.6
				c1.7-5.9,3.3-11.8,5.4-17.6c0.4-1.5,1.3-6-1.6-5.2c-2.7,0.6-6.2,1.2-7.9,3.6c-1.1,1.7-1.7,4-2.2,5.9c-0.6,2.2-1.1,4.3-1.7,6.5
				c-4.4-3.8-8.9-7.5-13.4-11.3c-2.1-1.8-4.2-3.6-6.4-5.2c-1.7-1.3-3.9-3.4-6.2-3.6c-1-0.2-1.2,1-1.3,1.8c-0.1,1.5-0.3,3-0.3,4.5
				c0,1.7,0,3.4,0.3,5.1c0.2,0.9,0.4,2.1,1.4,2.7c5.9,3.7,19.3,12.7,23.3,15.6c-3.9,13.9-8.2,27.9-10.5,42.2c-2.6,3.7-5.3,7.3-9,10
				c2.5-3.2,4.2-6.9,4.9-10.9c0.5-4.5-0.1-9-1.2-13.4c-1.1-4.3-2.7-8.6-3.3-13c0.3-2.5,0.5-5,0.8-7.5c0-1.3-1.5-2-2.7-2
				c-1.7,0-3.4,1-4.6,2.3c-2.2,2.4-3.2,6.1-2.3,9.3c-3.4,8-6.8,16.1-11,23.8c-1,1.9-2,3.7-3.1,5.5c-1.1,1.9-2.4,3.7-3.3,5.7
				c-0.9,1.9-1.5,3.8-1.6,5.9c-0.1,0.8-0.1,1.8,0.1,2.6c0.3,1,1.1,0,1.5-0.4c7.8-10.4,14.2-22.2,19.2-34.2c0.2,2.5,1.1,4.8,1.8,7.2
				c0.7,2.5,1.2,5,1,7.6c-0.4,4.6-2.5,8.9-5.3,12.6c-0.6,1-2,0.8-2.9,0.4c-1.3-0.6-2.2-1.9-2.7-3.2c-0.2-0.9-1.5,0.1-1.8,0.4
				c-1.1,1-1.9,2.4-2.7,3.6c-0.7,1.1-1.5,2.2-2,3.4c-0.1,0.2-0.7,1.9-0.5,1.9c0.7,2.6,2.5,4.6,5.1,5.5c2.8,1,5.9,0.7,8.8,0.2
				c3.5-0.6,6.3-2.5,8.9-4.8c2.7-2.4,5-5.1,6.9-8.1c-0.1,1.7,0,3.4,0.3,5c0.2,1.3,0.6,2.7,1.8,3.4c0.7,0.5,1.8,0.5,2.7,0.4
				c6-0.8,10.3-6.9,13.2-11.7c0.1,0.6,0.2,1.1,0.3,1.6c0.5,2.1,1.4,4.4,3,5.9c1.6,1.5,3.7,1.1,5.5,0.3c3.9-1.6,6.8-4.9,8.9-8.4
				c0.1,2.1,0.7,5.1,3,5.8c2,0.6,4.2-0.5,5.9-1.5c5-3,8.4-8.5,11.4-13.4c5.1-7.8,8.6-16.8,10.8-25.7c0.7-0.1,3.7,1.3,4.4,1.8
				c-1.6,4.7-3,9.4-3.9,14.3c-0.9,4.7-1.7,9.6-1.4,14.4c0.1,1.6,0.5,4,2.1,4.8c1.5,0.8,3.4,0.2,4.8-0.4c4.2-1.9,7.6-5.5,10.4-9.1
				c0.1,2,0.1,5.3,2.1,6.4c0.7,0.5,1.8,0.5,2.7,0.4c3.1-0.4,5.8-2.4,7.9-4.6c2.4-2.5,4.4-5.4,6.2-8.5c6.8-9.6,12.4-20.1,16.9-30.9
				c0.2,2.5,1.1,4.8,1.8,7.2c0.7,2.5,1.2,5,1,7.6c-0.4,4.6-2.5,8.8-5.3,12.5c-0.6,1-2,0.8-2.9,0.4c-1.3-0.6-2.2-1.8-2.7-3.1
				c-0.2-1-1.5,0.1-1.8,0.4c-1,0.9-1.7,2.1-2.5,3.2c-0.8,1.2-1.7,2.4-2.2,3.7c-0.1,0.2-0.7,1.9-0.5,1.9c1.1,4.1,5,6,9,6.1
				c2.5,0,5.3-0.3,7.6-1.2c2.4-1,4.5-2.6,6.4-4.3c3.9-3.5,7.1-7.9,9.3-12.6c0.8-1.7,1.5-3.5,1.7-5.4
				C331.9,93.5,332.3,90.7,331.2,90.9z"/>
		</g>
	</g>
</g>
</svg>
