<?xml version="1.0" encoding="utf-8"?>
<!-- Generator: Adobe Illustrator 18.0.0, SVG Export Plug-In . SVG Version: 6.00 Build 0)  -->
<!DOCTYPE svg PUBLIC "-//W3C//DTD SVG 1.1//EN" "http://www.w3.org/Graphics/SVG/1.1/DTD/svg11.dtd">
<svg version="1.1" id="Layer_1" xmlns="http://www.w3.org/2000/svg" xmlns:xlink="http://www.w3.org/1999/xlink" x="0px" y="0px"
	 viewBox="0 0 128 128" enable-background="new 0 0 128 128" xml:space="preserve">
<path fill="#FFFFFF" d="M77.3,30H50.7c-2.5,0-4.6,2.1-4.6,4.6v53.9c0,2.5,2,4.6,4.6,4.6h26.5c2.5,0,4.6-2.1,4.6-4.6V34.6
	C81.8,32,79.8,30,77.3,30z M57.8,33.3h12.3v1.3h0H57.8V33.3z M64,90.1c-1.6,0-3-1.3-3-3s1.3-3,3-3c1.6,0,3,1.3,3,3
	S65.6,90.1,64,90.1z M78.4,81H49.6V37.7h28.8V81z"/>
</svg>
