<?xml version="1.0" encoding="utf-8"?>
<!-- Generator: Adobe Illustrator 18.0.0, SVG Export Plug-In . SVG Version: 6.00 Build 0)  -->
<!DOCTYPE svg PUBLIC "-//W3C//DTD SVG 1.1//EN" "http://www.w3.org/Graphics/SVG/1.1/DTD/svg11.dtd">
<svg version="1.1" id="Layer_1" xmlns="http://www.w3.org/2000/svg" xmlns:xlink="http://www.w3.org/1999/xlink" x="0px" y="0px"
	 viewBox="0 0 140 140" enable-background="new 0 0 140 140" xml:space="preserve">
<path fill="#FFFFFF" d="M45.5,0h49c25,0,45.5,20.5,45.5,45.5v49c0,25-20.5,45.5-45.5,45.5h-49C20.5,140,0,119.5,0,94.5v-49
	C0,20.5,20.5,0,45.5,0z"/>
<g>
	<path fill-rule="evenodd" clip-rule="evenodd" fill="#2C3A46" d="M99.1,65.6c-1.7,0.9-3.8,0.3-4.7-1.4c-0.9-1.7-0.3-3.8,1.4-4.7
		c1.7-0.9,3.8-0.3,4.7,1.3C101.4,62.6,100.8,64.7,99.1,65.6L99.1,65.6z M103,57.1L103,57.1c-0.5-0.4-1-0.8-1.5-1.1l0.2-1.3
		c0.1-0.4-0.2-0.8-0.6-1l-2-0.5c-0.5-0.1-0.9,0.1-1.1,0.5l-0.5,1.3c-0.7,0-1.3,0.1-1.9,0.2l-0.8-1.2c-0.2-0.3-0.8-0.5-1.1-0.2
		l-1.8,1c-0.4,0.2-0.6,0.7-0.4,1.1l0.5,1.2c-0.5,0.4-0.9,1-1.3,1.6l-1.3-0.2c-0.5-0.1-0.8,0.2-1,0.6l-0.6,2
		c-0.1,0.5,0.2,0.9,0.5,1.1l1.2,0.5c0,0.6,0.1,1.3,0.2,2l-1.1,0.7c-0.4,0.3-0.5,0.8-0.2,1.2l1,1.8c0.2,0.4,0.7,0.5,1.1,0.4l1.1-0.5
		c0.5,0.5,1,0.9,1.5,1.2l-0.2,1.2c-0.1,0.5,0.2,0.9,0.6,1l2,0.6c0.5,0.1,0.8-0.1,1.1-0.5l0.5-1.1c0.7,0,1.4-0.1,2-0.2l0.7,1
		c0.3,0.4,0.8,0.4,1.1,0.2l1.9-1c0.4-0.2,0.5-0.7,0.4-1.1l-0.5-1.1c0.5-0.5,1-1,1.3-1.7l1.2,0.2c0.5,0.1,0.9-0.2,1.1-0.6l0.5-2
		c0.2-0.4-0.1-0.8-0.5-1l-1.2-0.5c0-0.7-0.1-1.3-0.2-2l1.1-0.8c0.3-0.2,0.5-0.7,0.2-1.1l-1-1.8c-0.2-0.4-0.7-0.6-1.1-0.4L103,57.1z"
		/>
</g>
<g>
	<path fill-rule="evenodd" clip-rule="evenodd" fill="#2C3A46" d="M98.3,84c-1.7,0.9-3.8,0.3-4.7-1.4c-0.9-1.7-0.3-3.8,1.4-4.7
		c1.7-0.9,3.8-0.3,4.7,1.3C100.5,81,99.9,83.1,98.3,84L98.3,84z M102.2,75.4L102.2,75.4c-0.5-0.4-1-0.8-1.5-1.1l0.2-1.3
		c0.1-0.4-0.2-0.8-0.6-1l-2-0.5c-0.5-0.1-0.9,0.1-1.1,0.5l-0.5,1.3c-0.7,0-1.3,0.1-1.9,0.2L94,72.1c-0.2-0.3-0.8-0.5-1.1-0.2l-1.8,1
		c-0.4,0.2-0.6,0.7-0.4,1.1l0.5,1.2c-0.5,0.4-0.9,1-1.3,1.6l-1.3-0.2c-0.5-0.1-0.8,0.2-1,0.6l-0.6,2c-0.1,0.5,0.2,0.9,0.5,1.1
		l1.2,0.5c0,0.6,0.1,1.3,0.2,2l-1.1,0.7c-0.4,0.3-0.5,0.8-0.2,1.2l1,1.8c0.2,0.4,0.7,0.5,1.1,0.4l1.1-0.5c0.5,0.5,1,0.9,1.5,1.2
		l-0.2,1.2c-0.1,0.5,0.2,0.9,0.6,1l2,0.6c0.5,0.1,0.8-0.1,1.1-0.5l0.5-1.1c0.7,0,1.4-0.1,2-0.2l0.7,1c0.3,0.4,0.8,0.4,1.1,0.2l1.9-1
		c0.4-0.2,0.5-0.7,0.4-1.1l-0.5-1.1c0.5-0.5,1-1,1.3-1.7l1.2,0.2c0.5,0.1,0.9-0.2,1.1-0.6l0.5-2c0.2-0.4-0.1-0.8-0.5-1l-1.2-0.5
		c0-0.7-0.1-1.3-0.2-2l1.1-0.8c0.3-0.2,0.5-0.7,0.2-1.1l-1-1.8c-0.2-0.4-0.7-0.6-1.1-0.4L102.2,75.4z"/>
</g>
<g>
	
		<image overflow="visible" opacity="0.37" width="418" height="491" xlink:href="66CBD63CF9E57108.png"  transform="matrix(0.24 0 0 0.24 24.8882 13)">
	</image>
	<g>
		<path fill-rule="evenodd" clip-rule="evenodd" fill="#EF4345" d="M85.5,44.2c-6.1,0.1-11.8,4.1-14.9,4.1c-3.4,0-8.7-3.9-14.2-3.8
			c-7.3,0.1-14.1,4.3-17.8,11c-7.6,13.4-1.9,33.3,5.5,44.2c3.6,5.3,7.9,11.3,13.6,11.1c5.5-0.2,7.5-3.6,14.1-3.6
			c6.6,0,8.5,3.6,14.2,3.5c5.9-0.1,9.6-5.4,13.2-10.8c4.2-6.2,5.9-12.2,6-12.5c-0.1-0.1-11.5-4.5-11.6-17.8
			c-0.1-11.1,8.9-16.4,9.3-16.7c-5.1-7.6-13-8.6-15.8-8.7C86.6,44.2,86,44.1,85.5,44.2z M87.2,23c-4.3,0.2-9.6,2.9-12.7,6.7
			c-2.8,3.3-5.2,8.5-4.6,13.6c4.8,0.4,9.8-2.5,12.8-6.2C85.7,33.3,87.7,28.1,87.2,23z"/>
	</g>
</g>
</svg>
