<?xml version="1.0" encoding="utf-8"?>
<!-- Generator: Adobe Illustrator 18.0.0, SVG Export Plug-In . SVG Version: 6.00 Build 0)  -->
<!DOCTYPE svg PUBLIC "-//W3C//DTD SVG 1.1//EN" "http://www.w3.org/Graphics/SVG/1.1/DTD/svg11.dtd">
<svg version="1.1" id="Layer_1" xmlns="http://www.w3.org/2000/svg" xmlns:xlink="http://www.w3.org/1999/xlink" x="0px" y="0px"
	 viewBox="0 0 256 256" enable-background="new 0 0 256 256" xml:space="preserve">
<g>
	<path fill-rule="evenodd" clip-rule="evenodd" fill="#FFFFFF" d="M168.6,65.8C151.9,66.1,136.4,77,127.8,77
		c-9.3,0-23.7-10.7-38.9-10.4c-20,0.3-38.5,11.8-48.8,30.1c-20.8,36.7-5.3,91.2,14.9,121c9.9,14.6,21.7,31,37.2,30.4
		c15-0.6,20.6-9.8,38.7-9.8s23.1,9.8,38.9,9.5c16.1-0.3,26.3-14.9,36.1-29.5c11.4-16.9,16.1-33.3,16.3-34.2
		c-0.4-0.2-31.3-12.2-31.7-48.6c-0.3-30.4,24.4-45,25.5-45.7c-13.9-20.7-35.5-23.5-43.2-23.8C171.5,65.9,170.1,65.8,168.6,65.8z
		 M173.2,8c-11.9,0.5-26.2,8-34.7,18.2c-7.6,9-14.3,23.4-12.5,37.1c13.2,1,26.7-6.9,35-17C169.1,36.2,174.7,22,173.2,8z"/>
</g>
</svg>
