<?xml version="1.0" encoding="utf-8"?>
<!-- Generator: Adobe Illustrator 18.0.0, SVG Export Plug-In . SVG Version: 6.00 Build 0)  -->
<!DOCTYPE svg PUBLIC "-//W3C//DTD SVG 1.1//EN" "http://www.w3.org/Graphics/SVG/1.1/DTD/svg11.dtd">
<svg version="1.1" id="Layer_1" xmlns="http://www.w3.org/2000/svg" xmlns:xlink="http://www.w3.org/1999/xlink" x="0px" y="0px"
	 width="230px" height="280px" viewBox="0 0 230 280" style="enable-background:new 0 0 230 280;" xml:space="preserve">
<style type="text/css">
	.st0{fill:#2C0D3C;}
	.st1{fill:#7A5097;stroke:#7A5097;stroke-width:2;stroke-miterlimit:10;}
	.st2{fill:#7A5097;}
	.st3{fill:#FFFFFF;}
	.st4{fill:#C1C1C6;}
	.st5{fill:#F16660;}
	.st6{fill:none;stroke:#FFF200;stroke-width:4;stroke-linecap:round;stroke-miterlimit:10;}
	.st7{fill:#2D3B47;}
	.st8{fill:#632C86;}
	.st9{fill:#892C77;}
	.st10{fill:#44B649;}
	.st11{fill:#FFF200;}
	.st12{fill:#1D4C9F;}
	.st13{fill:#EE3445;}
	.st14{fill:none;stroke:#44B649;stroke-width:4;stroke-linecap:round;stroke-miterlimit:10;}
	.st15{fill:none;stroke:#1D4C9F;stroke-width:4;stroke-linecap:round;stroke-miterlimit:10;}
	.st16{fill:#D42027;}
	.st17{fill:#39C6F4;}
</style>
<rect x="77.5" y="99.5" class="st0" width="122" height="60"/>
<line class="st1" x1="110.5" y1="136" x2="164.5" y2="136"/>
<path class="st2" d="M148.1,154h-20v-10c0-2.8,2.2-5,5-5h10c2.8,0,5,2.2,5,5V154z"/>
<circle class="st2" cx="119.6" cy="147" r="5"/>
<circle class="st2" cx="156.6" cy="147" r="5"/>
<rect x="13.2" y="233.2" class="st3" width="36" height="22"/>
<circle class="st4" cx="23.8" cy="244.3" r="6.5"/>
<circle class="st5" cx="38.8" cy="244.3" r="6.5"/>
<rect x="21.5" y="241" class="st0" width="5" height="2"/>
<rect x="21.5" y="245.5" class="st0" width="5" height="2"/>
<path class="st6" d="M38.8,243.9c0,0,2.6,20.1,15.7,20.2c13.3,0,17.6-15.4,23.6-53"/>
<g>
	<circle class="st3" cx="169.5" cy="118" r="25"/>
	<circle class="st7" cx="169.5" cy="118" r="8.3"/>
	<path class="st7" d="M183.9,120.1h6.4v-4.2h-6.4c0.1,0.7,0.2,1.4,0.2,2.1S184,119.4,183.9,120.1z"/>
	<path class="st7" d="M160.9,98.9l-3.6,2.1l3.2,5.6c1.1-0.9,2.3-1.6,3.6-2.1L160.9,98.9z"/>
	<path class="st7" d="M160.5,129.4l-3.2,5.6l3.6,2.1l3.2-5.5C162.8,131,161.6,130.3,160.5,129.4z"/>
</g>
<g>
	<circle class="st3" cx="107.5" cy="118" r="25"/>
	<circle class="st7" cx="107.5" cy="118" r="8.3"/>
	<path class="st7" d="M121.9,120.1h6.4v-4.2h-6.4c0.1,0.7,0.2,1.4,0.2,2.1S122,119.4,121.9,120.1z"/>
	<path class="st7" d="M98.9,98.9l-3.6,2.1l3.2,5.6c1.1-0.9,2.3-1.6,3.6-2.1L98.9,98.9z"/>
	<path class="st7" d="M98.5,129.4l-3.2,5.6l3.6,2.1l3.2-5.5C100.8,131,99.6,130.3,98.5,129.4z"/>
</g>
<polygon class="st2" points="93.3,270 77.3,270 77.3,240 100.3,240 "/>
<polygon class="st2" points="186.3,270 202.3,270 202.3,240 179.3,240 "/>
<polygon class="st8" points="100.3,240 77.3,240 77.3,247.2 98.6,247.2 "/>
<polygon class="st8" points="202.3,240 179.3,240 180.9,247.2 202.3,247.2 "/>
<polygon class="st8" points="79.5,157.5 77.5,159.5 199.5,159.5 197.5,157.5 "/>
<polygon class="st8" points="77.5,99.5 77.5,159.5 79.5,157.5 79.5,101.5 "/>
<polygon class="st9" points="77.5,99.5 79.5,101.5 197.5,101.5 199.5,99.5 "/>
<polygon class="st9" points="197.5,101.5 197.5,157.5 199.5,159.5 199.5,99.5 "/>
<rect x="103.5" y="72" class="st9" width="9" height="9"/>
<rect x="98" y="81" class="st2" width="20" height="5"/>
<path class="st2" d="M211.5,86h-145v154h145V86z M77.5,159.5v-60h122v60H77.5z"/>
<rect x="76.3" y="167" class="st8" width="124" height="50"/>
<circle class="st0" cx="118.3" cy="184.5" r="7"/>
<circle class="st10" cx="118.3" cy="184.5" r="4.5"/>
<circle class="st0" cx="118.3" cy="201.5" r="7"/>
<circle class="st11" cx="118.3" cy="201.5" r="4.5"/>
<circle class="st0" cx="138.3" cy="184.5" r="7"/>
<circle class="st12" cx="138.3" cy="184.5" r="4.5"/>
<circle class="st0" cx="138.3" cy="201.5" r="7"/>
<circle class="st13" cx="138.3" cy="201.5" r="4.5"/>
<circle class="st0" cx="155.3" cy="184.5" r="4.5"/>
<circle class="st0" cx="155.3" cy="201.5" r="4.5"/>
<circle class="st0" cx="168.3" cy="184.5" r="4.5"/>
<circle class="st0" cx="168.3" cy="201.5" r="4.5"/>
<circle class="st0" cx="181.3" cy="184.5" r="4.5"/>
<circle class="st0" cx="181.3" cy="201.5" r="4.5"/>
<path class="st6" d="M155.3,184.5c0,0-1.6,15.9,13,17"/>
<path class="st14" d="M168.3,184.5c0,0,0.7,12.3-13.1,17.1"/>
<path class="st15" d="M181.3,184.5c0,0-7.2,9.3,0,17.1"/>
<polygon class="st9" points="197.3,170 79.3,170 76.3,167 200.3,167 "/>
<polygon class="st0" points="200.3,217 76.3,217 79.3,214 197.3,214 "/>
<polygon class="st9" points="79.3,214 76.3,217 76.3,167 79.3,170 "/>
<polygon class="st0" points="200.3,217 197.3,214 197.3,170 200.3,167 "/>
<rect x="86.3" y="177" class="st0" width="18" height="30"/>
<rect x="88.8" y="180" class="st5" width="13" height="24"/>
<rect x="88.8" y="180" class="st11" width="13" height="12"/>
<g>
	<path class="st3" d="M90.1,210.3c0-2.4,3.7-2.5,3.7,0C93.8,212.8,90.1,212.8,90.1,210.3z M91.2,210.3c0,1.1,1.4,1.4,1.5,0.2
		C92.8,209.2,91.2,208.9,91.2,210.3z"/>
	<path class="st3" d="M94.4,208.5h2.7v0.8h-1.6v0.6h1.4v0.7h-1.4v1.5h-1.1V208.5z"/>
	<path class="st3" d="M97.7,208.5h2.7v0.8h-1.6v0.6h1.4v0.7h-1.4v1.5h-1.1V208.5z"/>
</g>
<g>
	<path class="st3" d="M91.5,174c0-2.4,3.7-2.5,3.7,0C95.2,176.4,91.5,176.4,91.5,174z M92.6,174c0,1.1,1.4,1.4,1.5,0.2
		C94.2,172.8,92.6,172.5,92.6,174z"/>
	<path class="st3" d="M95.8,172.2h1l1.3,2v-2h1v3.6h-1l-1.3-2v2h-1V172.2z"/>
</g>
<path class="st2" d="M150,72H80c-5.5,0-10-4.5-10-10V20c0-5.5,4.5-10,10-10h70c5.5,0,10,4.5,10,10v42C160,67.5,155.5,72,150,72z"/>
<path class="st16" d="M134.6,21.3c5.9,5.9,5.9,33.6,0,39.5c-5.9,5.9-49.3,5.9-55.2,0c-5.9-5.9-5.9-33.6,0-39.5
	C85.3,15.4,128.7,15.4,134.6,21.3z"/>
<path class="st0" d="M132.9,22.5c5.5,5.5,5.5,31.5,0,37c-5.5,5.5-46.3,5.5-51.8,0c-5.5-5.5-5.5-31.5,0-37
	C86.6,17,127.4,17,132.9,22.5z"/>
<circle class="st0" cx="148.1" cy="33" r="7"/>
<circle class="st17" cx="148.1" cy="33" r="4.5"/>
<circle class="st0" cx="148.1" cy="50" r="7"/>
<circle class="st11" cx="148.1" cy="50" r="4.5"/>
<g>
	<path class="st3" d="M82,229c-0.7,0-1.3,0.4-1.5-0.6c-0.1-0.7,0.1-1.4,0.2-2c1.4-0.4,2.7-1.2,3.6-2.4c0.6-0.8,1.4-2.7,0.1-3.3
		c-0.9-0.4-2.2,0-2.8,0.6c-1.3,1.2-2.1,2.9-2.5,4.5l-0.5,0.1c-0.5,0-0.1,0.7,0.2,0.7h0.1c-0.2,1.2-0.3,3,1.1,3.5
		c0.6,0.2,1.2,0.1,1.7-0.2C82,229.8,82.7,229,82,229z M82.1,222.5c0.4-0.8,1.3-1,1.1,0.2c-0.2,1.2-1.2,2.1-2.2,2.6
		C81.3,224.4,81.6,223.4,82.1,222.5C82.4,221.9,81.6,223.4,82.1,222.5z"/>
	<path class="st3" d="M96.6,228.5c-0.5,0-0.9,0.4-1.3-0.1c-0.2-0.3-0.1-0.8,0-1.1c0.3-1,0.9-1.9,1.2-2.9c0.3-0.7,0.9-2.4,0.1-3
		c-0.7-0.5-1.5,0.5-1.8,1c-0.5,1.7-0.9,3.4-0.9,5.1v0.2c-0.3,0.4-3.1,2.4-3.2,0.9c-0.1-0.6,0.9-1.1,1.3-1.3c0.6-0.2,1.4,0,1.6-0.8
		c0.2-0.9-1.6-0.6-2-0.4c-1,0.5-2.4,1.4-2.6,2.6c-0.5,0-1.3,0.3-1.2-0.6c0.1-0.3,0.8-1.6,0.1-1.6c-0.5,0-3.5,2.9-3.9,1.5
		c-0.3-0.8,0.9-2.4-0.7-2.3c-0.5,0-2.3,0.6-1.8,1.5c0.1,0.3,1.1,0,1.4,0c0.4,0-0.2,1.8-0.1,2.2c0.4,1.9,3-0.4,3.7-0.4
		c0,0,0.1,0.5,0.1,0.6c0.1,0.3,0.2,0.4,0.5,0.5c0.7,0.2,1.6-0.1,2-0.6c0.8,1.9,3.9,0.6,5-0.2c0.3,0.7,1.1,1.1,1.8,0.8
		C96.3,229.9,97.6,228.5,96.6,228.5z"/>
	<path class="st3" d="M102.9,228.7c-0.5-0.4,0.2-1.2,0.2-1.7c0.2-0.9-0.9-0.3-1.1-0.1c-0.4,0.3-3.3,2.5-3.1,0.6
		c0.1-0.9,0.5-2-0.9-1.8c-0.5,0.1-2.1,0.7-1.7,1.4c0.1,0.3,1.1,0,1.4,0c0.4,0-0.2,1.8-0.1,2.2c0.4,1.9,3-0.4,3.7-0.4
		c-0.1,0,0.2,0.9,0.4,1c0.5,0.3,1.2,0.1,1.7-0.1c0.2-0.1,1-0.7,0.7-1C103.9,228.4,103.3,229,102.9,228.7z"/>
	<path class="st3" d="M115.3,226.9c0-0.5-1.4-0.5-1.7-0.2c-0.4,0.6-1.3,1.3-2.1,1.4c-0.9,0.1-0.3-1.3-0.2-1.8c0.1-1.3-2.3-0.5-2.8,0
		c-0.9-1.4-4.1,0-4.7,1.2c-0.3,0.5,0.3,0.8,0.7,0.6c0.4-0.2,0.7-0.5,1.1-0.7c0.6-0.4,2.3-0.7,1.9,0.7c-0.1,0.4-0.6,0.7-1,0.7
		c-0.5,0-0.7-0.5-1.2-0.6c-0.9,0-1.2,1.5-0.3,1.8c1.8,0.6,3.9-0.7,3.8-2.7c0.3-0.1,0.6-0.2,0.9-0.2c0.6,0.3-0.6,1.9-0.1,2.4
		c0.6,0.8,3-0.1,3.4-0.7c-0.1,0-1.2,4.3-1.1,4.8c0.2,0.7,1.2,0.4,1.6,0.2c0.7-0.4,0.1-1,0.2-1.7C114,230.4,115.3,228.7,115.3,226.9z
		"/>
</g>
</svg>
