<?xml version="1.0" encoding="utf-8"?>
<!-- Generator: Adobe Illustrator 18.0.0, SVG Export Plug-In . SVG Version: 6.00 Build 0)  -->
<!DOCTYPE svg PUBLIC "-//W3C//DTD SVG 1.1//EN" "http://www.w3.org/Graphics/SVG/1.1/DTD/svg11.dtd">
<svg version="1.1" id="Layer_1" xmlns="http://www.w3.org/2000/svg" xmlns:xlink="http://www.w3.org/1999/xlink" x="0px" y="0px"
	 width="300px" height="440px" viewBox="0 0 300 440" style="enable-background:new 0 0 300 440;" xml:space="preserve">
<style type="text/css">
	.st0{fill:#FFFFFF;}
	.st1{fill:#B5E3EF;}
	.st2{fill:#F0662F;}
	.st3{fill:#2C0D3C;}
	.st4{fill:none;stroke:#FFF200;stroke-width:4;stroke-linecap:round;stroke-miterlimit:10;}
	.st5{fill:none;stroke:#39C6F4;stroke-width:4;stroke-linecap:round;stroke-miterlimit:10;}
	.st6{fill:#632C86;}
	.st7{fill:#FFC60B;}
	.st8{fill:#7A5097;}
	.st9{fill:#892C77;}
	.st10{fill:#EE3445;}
	.st11{fill:none;stroke:#632C86;stroke-miterlimit:10;}
	.st12{fill:none;stroke:#44B649;stroke-width:2;stroke-miterlimit:10;}
	.st13{fill:#675571;}
	.st14{fill:#8E7F95;}
	.st15{fill:none;stroke:#FFC60B;stroke-width:2;stroke-miterlimit:10;}
	.st16{fill:none;stroke:#EE3445;stroke-width:2;stroke-miterlimit:10;}
	.st17{fill:#39C6F4;}
	.st18{fill:none;stroke:#2C0D3C;stroke-width:3;stroke-miterlimit:10;}
	.st19{fill:#FFF200;}
	.st20{font-family:'AeroviasBrasilNF';}
	.st21{font-size:16;}

	.testWheelsAnimation1 {
		animation-name:epTestWheelsAnimation1;
		animation-duration: 2s;
		animation-iteration-count:infinite; 
		animation-direction: alternate-reverse; 
		animation-timing-function:ease-in;
	}

	@keyframes epTestWheelsAnimation1 {
		
		0% {
		  	transform-origin: 94px 369px;
			transform: rotate(0deg); 
		}
		35% {
			transform-origin: 94px 369px;
			transform: rotate(120deg); 
		}
		40% {
			transform-origin: 94px 369px;
			transform: rotate(125deg); 
		}
		60% {
			transform-origin: 94px 369px;
			transform: rotate(125deg); 
		}
		65% {
			transform-origin: 94px 369px;
			transform: rotate(200deg); 
		}
		100% {
		  	transform-origin: 94px 369px;
			transform: rotate(360deg); 
		}
	}

	.testWheelsAnimation2 {
		animation-name:epTestWheelsAnimation2;
		animation-duration: 2s;
		animation-delay:0.1s;
		animation-iteration-count:infinite; 
		animation-direction: alternate-reverse; 
		animation-timing-function:ease-in;
	}

	@keyframes epTestWheelsAnimation2 {
		
		0% {
		  	transform-origin: 169px 369px;
			transform: rotate(0deg); 
		}
		35% {
			transform-origin: 169px 369px;
			transform: rotate(120deg); 
		}
		40% {
			transform-origin: 169px 369px;
			transform: rotate(125deg); 
		}
		60% {
			transform-origin: 169px 369px;
			transform: rotate(125deg); 
		}
		65% {
			transform-origin: 169px 369px;
			transform: rotate(200deg); 
		}
		100% {
		  	transform-origin: 169px 369px;
			transform: rotate(360deg); 
		}
	}

	.testLightsAnimation1 {
		animation-name:epTestLightsAnimation1;
		animation-duration: 2s;
		animation-iteration-count:infinite; 
		animation-direction: alternate-reverse; 
		animation-timing-function:ease-in;
	}

	@keyframes epTestLightsAnimation1 {
		
		0% {
    		fill: #ffc60b;	
  		}

		50% {
			fill: #ffc60b;
		}

		55%{
			fill: white;
		}

  		100% {
		  	fill: white;
  		}
	}

	.testLightsAnimation2 {
		animation-name:epTestLightsAnimation2;
		animation-duration: 2s;
		animation-iteration-count:infinite; 
		animation-direction: alternate-reverse; 
		animation-timing-function:ease-in;
	}

	@keyframes epTestLightsAnimation2 {
		
		0% {
    		fill: white;	
  		}

		50% {
			fill: white;
		}

		55%{
			fill: #ffc60b;
		}

  		100% {
		  	fill: #ffc60b;
  		}
	}

</style>
<rect x="238.6" y="407.3" class="st0" width="36" height="22"/>
<circle class="st1" cx="264" cy="418.4" r="6.5"/>
<circle class="st2" cx="249" cy="418.4" r="6.5"/>
<rect x="261.3" y="415.1" class="st3" width="5" height="2"/>
<rect x="261.3" y="419.6" class="st3" width="5" height="2"/>
<path class="st4" d="M249,418.1c0,0-2.6,20.1-15.7,20.2c-13.3,0-17.6-15.4-23.6-53"/>
<rect x="238.6" y="377.3" class="st0" width="36" height="22"/>
<rect x="261.3" y="384.1" class="st3" width="5" height="8"/>
<rect x="244.8" y="384.1" class="st2" width="9" height="8"/>
<path class="st5" d="M249,388.1c0,0,1,30.3-12,30.4c-13.3,0-21.3-25.6-27.3-63.2"/>
<rect x="34" y="204" class="st6" width="195" height="220"/>
<rect x="39" y="214" class="st3" width="185" height="100"/>
<g>
	<circle class="testLightsAnimation1" cx="184" cy="244" r="5"/>
	<circle class="testLightsAnimation1" cx="214" cy="244" r="5"/>
	<circle class="testLightsAnimation1" cx="169" cy="259" r="5"/>
	<circle class="testLightsAnimation1" cx="199" cy="259" r="5"/>
	<circle class="testLightsAnimation1" cx="214" cy="259" r="5"/>
	<circle class="testLightsAnimation1" cx="169" cy="274" r="5"/>
	<circle class="testLightsAnimation1" cx="184" cy="289" r="5"/>
	<circle class="testLightsAnimation1" cx="214" cy="289" r="5"/>
	<circle class="testLightsAnimation1" cx="199" cy="304" r="5"/>
</g>
<g>
	<circle class="testLightsAnimation2" cx="169" cy="244" r="5"/>
	<circle class="testLightsAnimation2" cx="199" cy="244" r="5"/>
	<circle class="testLightsAnimation2" cx="184" cy="259" r="5"/>
	<circle class="testLightsAnimation2" cx="184" cy="274" r="5"/>
	<circle class="testLightsAnimation2" cx="199" cy="274" r="5"/>
	<circle class="testLightsAnimation2" cx="214" cy="274" r="5"/>
	<circle class="testLightsAnimation2" cx="169" cy="289" r="5"/>
	<circle class="testLightsAnimation2" cx="199" cy="289" r="5"/>
	<circle class="testLightsAnimation2" cx="169" cy="304" r="5"/>
	<circle class="testLightsAnimation2" cx="184" cy="304" r="5"/>
	<circle class="testLightsAnimation2" cx="214" cy="304" r="5"/>
</g>
<rect x="39" y="324" class="st8" width="185" height="95"/>
<circle class="st7" cx="49" cy="225" r="5"/>
<polygon class="st8" points="229,199 34,199 53,149 209,149 "/>
<path class="st6" d="M205.6,154l16,40H41.2l15.2-40H205.6 M209,149H53l-19,50h195L209,149L209,149z"/>
<rect x="41.5" y="199" class="st9" width="180" height="5"/>
<rect x="61" y="159" class="st3" width="140" height="30"/>
<rect x="66" y="164" class="st10" width="20" height="9"/>
<rect x="66" y="175" class="st0" width="20" height="9"/>
<rect x="88" y="164" class="st0" width="20" height="9"/>
<rect x="88" y="175" class="st10" width="20" height="9"/>
<rect x="110" y="164" class="st0" width="9" height="9"/>
<rect x="110" y="175" class="st10" width="20" height="9"/>
<rect x="121" y="164" class="st10" width="9" height="9"/>
<rect x="143" y="175" class="st0" width="9" height="9"/>
<rect x="132" y="164" class="st10" width="20" height="9"/>
<rect x="132" y="175" class="st10" width="9" height="9"/>
<rect x="154" y="164" class="st0" width="20" height="9"/>
<rect x="154" y="175" class="st10" width="20" height="9"/>
<rect x="187" y="175" class="st10" width="9" height="9"/>
<rect x="176" y="164" class="st0" width="20" height="9"/>
<rect x="176" y="175" class="st10" width="9" height="9"/>
<rect x="177" y="220" class="st0" width="20" height="10"/>
<rect x="210" y="220" class="st0" width="9" height="10"/>
<rect x="199" y="220" class="st10" width="9" height="10"/>
<rect x="144" y="220" class="st10" width="20" height="10"/>
<rect x="166" y="220" class="st0" width="9" height="10"/>
<rect x="100" y="220" class="st0" width="20" height="10"/>
<rect x="133" y="220" class="st10" width="9" height="10"/>
<rect x="122" y="220" class="st0" width="9" height="10"/>
<rect x="59" y="220" class="st0" width="28" height="10"/>
<line class="st11" x1="104.3" y1="393.9" x2="158" y2="393.9"/>
<rect x="89" y="220" class="st10" width="9" height="10"/>
<g class="testWheelsAnimation1">
	<circle class="st10" cx="94" cy="369" r="30"/>
	<circle class="st3" cx="94" cy="369" r="10"/>
	<path class="st0" d="M96.5,351.7V344h-5v7.7c0.8-0.1,1.7-0.2,2.5-0.2S95.7,351.6,96.5,351.7z"/>
	<path class="st0" d="M71.1,379.3l2.5,4.3l6.7-3.8c-1-1.3-1.9-2.8-2.5-4.3L71.1,379.3z"/>
	<path class="st0" d="M107.7,379.8l6.7,3.8l2.5-4.3l-6.7-3.8C109.6,377.1,108.8,378.5,107.7,379.8z"/>
</g>
<circle class="st6" cx="71.5" cy="406.5" r="7.5"/>
<path class="st6" d="M141.5,409h-20v-10c0-2.8,2.2-5,5-5h10c2.8,0,5,2.2,5,5V409z"/>
<circle class="st6" cx="113" cy="402" r="5"/>
<g class="testWheelsAnimation2">
	<circle class="st10" cx="169" cy="369" r="30"/>
	<circle class="st3" cx="169" cy="369" r="10"/>
	<path class="st0" d="M166.5,351.7V344h5v7.7c-0.8-0.1-1.7-0.2-2.5-0.2S167.3,351.6,166.5,351.7z"/>
	<path class="st0" d="M191.9,379.3l-2.5,4.3l-6.7-3.8c1-1.3,1.9-2.8,2.5-4.3L191.9,379.3z"/>
	<path class="st0" d="M155.3,379.8l-6.7,3.8l-2.5-4.3l6.7-3.8C153.4,377.1,154.2,378.5,155.3,379.8z"/>
</g>
<circle class="st6" cx="191.5" cy="406.5" r="7.5"/>
<circle class="st6" cx="150" cy="402" r="5"/>
<polygon class="st9" points="42,416 39,419 39,324 41.9,327 "/>
<polygon class="st9" points="221,327 41.9,327 39,324 224,324 "/>
<polygon class="st3" points="224,419 221,416 221,327 224,324 "/>
<polygon class="st3" points="224,419 39,419 42,416 221,416 "/>
<rect x="49" y="424" class="st9" width="20" height="16"/>
<rect x="194" y="424" class="st9" width="20" height="16"/>
<g>
	<path class="st0" d="M45.2,329.1h1l-0.9,7h2.3l-0.1,1h-3.3L45.2,329.1z"/>
	<path class="st0" d="M49.6,337.1c-0.8,0-1.4-0.7-1.3-1.5l0.8-6.5h1l-0.8,6.5c0,0.3,0.2,0.5,0.5,0.5H50c0.3,0,0.6-0.2,0.6-0.5
		l0.8-6.5h1l-0.8,6.5c-0.1,0.8-0.9,1.5-1.7,1.5H49.6z"/>
	<path class="st0" d="M55.6,329.2c0.6,0.2,0.9,0.8,0.8,1.4l-0.6,5c-0.1,0.6-0.6,1.2-1.2,1.4c-0.2,0.1-0.4,0.1-0.5,0.1h-0.8h-1l1-8h1
		h0.8C55.3,329.1,55.5,329.2,55.6,329.2C55.9,329.3,55.5,329.2,55.6,329.2z M55.5,330.6c0-0.3-0.2-0.5-0.5-0.5h-0.8l-0.7,6h0.8
		c0.3,0,0.6-0.2,0.6-0.5L55.5,330.6z"/>
	<path class="st0" d="M57.9,337.1c-0.8,0-1.4-0.7-1.3-1.5l0.8-6.5h1l-0.8,6.5c0,0.3,0.2,0.5,0.5,0.5h0.3c0.3,0,0.6-0.2,0.6-0.5
		l0.8-6.5h1l-0.8,6.5c-0.1,0.8-0.9,1.5-1.7,1.5H57.9z"/>
	<path class="st0" d="M64.2,334.9l-0.1,0.7v0.1c-0.1,0.6-0.6,1.1-1.2,1.3c-0.2,0.1-0.3,0.1-0.5,0.1l0,0l0,0h-0.8h-1l0.1-1h1h0.8
		c0.3,0,0.5-0.2,0.6-0.5l0.2-1.6c0-0.3-0.2-0.5-0.5-0.5h-0.3l0,0l0,0c-0.8,0-1.4-0.7-1.3-1.4V332l0.2-1.4c0.1-0.7,0.6-1.2,1.2-1.4
		c0.2-0.1,0.3-0.1,0.5-0.1h0.8h1l-0.1,1h-1H63c-0.3,0-0.6,0.2-0.6,0.5l-0.2,1.4c0,0.3,0.2,0.5,0.5,0.5H63l0,0l0,0
		c0.2,0,0.3,0,0.5,0.1c0.6,0.2,0.9,0.8,0.8,1.4l-0.1,0.7V334.9z"/>
	<path class="st0" d="M69.2,329.1l-0.2,1.5l-0.4,3.5l-0.1,1l-0.1,0.5c-0.1,0.6-0.6,1.2-1.2,1.4c-0.2,0.1-0.4,0.1-0.5,0.1h-1.8l0.1-1
		h1.8c0.3,0,0.6-0.2,0.6-0.5l0.1-0.5h-0.8l0,0c-0.8,0-1.4-0.7-1.3-1.5l0.4-3l0.2-1.5h1v0.1l-0.2,1.4l-0.2,1.4l-0.2,1.6
		c0,0.3,0.2,0.5,0.5,0.5h0.8L68,332l0.2-1.4l0.2-1.4v-0.1H69.2z"/>
</g>
<path class="st12" d="M231.5,170.2c0,0,21.2-8.7,30.4,2.4c12.8,15.6-6.9,33.9-12.9,48.4c-7.6,18.3-14.6,52.3-5.7,55.2
	c4.2,1.3,13-7.2,14.3-33.8c0.8-16.4-4.4-28.3-15.7-28.3"/>
<rect x="229" y="210" class="st13" width="3" height="8"/>
<rect x="232" y="212" class="st14" width="10" height="4"/>
<rect x="229" y="220" class="st13" width="3" height="8"/>
<rect x="232" y="222" class="st14" width="10" height="4"/>
<rect x="229" y="230" class="st13" width="3" height="8"/>
<rect x="232" y="232" class="st14" width="10" height="4"/>
<path class="st15" d="M227.8,160.9c0,0,12.3-5.3,24.2,8.1c14.8,16.7-0.4,49-2.2,69c-1.8,19.8,10.2,50.2,2.8,49.5
	c-8.4-0.8-0.3-23,1.5-42.3c1.1-11.6-0.8-21.2-12-21.2"/>
<path class="st16" d="M230.6,181.3c0,0,19.1-5.6,24.6,0.4c13.6,14.9-0.1,44.8-6.2,59.3c-7.6,18.3-14.6,52.3-5.7,55.2
	c4.2,1.3,13-7.2,14.3-33.8c0.8-16.4-4.4-28.3-15.7-28.3"/>
<rect x="215.6" y="161.2" transform="matrix(-0.9285 0.3714 -0.3714 -0.9285 480.0698 237.9353)" class="st13" width="3" height="8"/>
<rect x="218.1" y="160.7" transform="matrix(-0.9285 0.3714 -0.3714 -0.9285 490.6626 230.9334)" class="st14" width="10" height="4"/>
<rect x="219.3" y="170.4" transform="matrix(-0.9285 0.3714 -0.3714 -0.9285 490.568 254.336)" class="st13" width="3" height="8"/>
<rect x="221.9" y="170" transform="matrix(-0.9285 0.3714 -0.3714 -0.9285 501.4319 247.3931)" class="st14" width="10" height="4"/>
<rect x="223" y="179.7" transform="matrix(-0.9285 0.3714 -0.3714 -0.9285 501.1722 270.9017)" class="st13" width="3" height="8"/>
<rect x="225.6" y="179.3" transform="matrix(-0.9285 0.3714 -0.3714 -0.9285 512.0361 263.9591)" class="st14" width="10" height="4"/>
<path class="st17" d="M121.9,244.8c6.8,7,6.8,47.4,0,54.4c-6.8,7-62.9,7-69.7,0s-6.8-47.4,0-54.4C59,237.7,115,237.7,121.9,244.8z"
	/>
<rect x="133" y="239" class="st6" width="22" height="70"/>
<path class="st3" d="M119.7,246.5c6.4,6.6,6.4,44.4,0,51s-59,6.6-65.4,0s-6.4-44.4,0-51S113.3,239.9,119.7,246.5z"/>
<line class="st18" x1="137" y1="245" x2="151" y2="245"/>
<line class="st18" x1="137" y1="250" x2="151" y2="250"/>
<line class="st18" x1="137" y1="255" x2="151" y2="255"/>
<line class="st18" x1="137" y1="260" x2="151" y2="260"/>
<line class="st18" x1="137" y1="288" x2="151" y2="288"/>
<line class="st18" x1="137" y1="293" x2="151" y2="293"/>
<line class="st18" x1="137" y1="298" x2="151" y2="298"/>
<line class="st18" x1="137" y1="303" x2="151" y2="303"/>
<line class="st18" x1="137" y1="269" x2="151" y2="269"/>
<line class="st18" x1="137" y1="274" x2="151" y2="274"/>
<line class="st18" x1="137" y1="279" x2="151" y2="279"/>
<text transform="matrix(0.9888 0 0 1 63.5332 276)" class="st19 st20 st21">testing..</text>
</svg>
